<?xml version="1.0" standalone="no"?>
<!DOCTYPE svg PUBLIC "-//W3C//DTD SVG 1.1//EN" "http://www.w3.org/Graphics/SVG/1.1/DTD/svg11.dtd" >
<svg xmlns="http://www.w3.org/2000/svg" xmlns:xlink="http://www.w3.org/1999/xlink" version="1.1">
<metadata>
Created by FontForge 20170731 at Sat Feb 17 04:19:40 2018
 By Aleksey,,,
copyright missing
</metadata>
<defs>
<font id="AlQabas-Light" horiz-adv-x="0" >
  <font-face 
    font-family="Al Qabas Light"
    font-weight="300"
    font-stretch="normal"
    units-per-em="1000"
    panose-1="0 0 4 0 0 0 0 0 0 0"
    ascent="800"
    descent="-200"
    x-height="494"
    cap-height="627"
    bbox="-38 -386 3069 942"
    underline-thickness="50"
    underline-position="-250"
    unicode-range="U+0020-FEFC"
  />
<missing-glyph horiz-adv-x="400" 
 />
    <glyph glyph-name="uniFEF5" unicode="&#xfedf;&#xfe82;" horiz-adv-x="489" arabic-form="isolated" 
d="M20 641v52q25 23 55 24t68 -8.5t59 -8.5q36 2 67 24v-52q-30 -20 -64 -22q-22 -1 -60.5 8.5t-69 8t-55.5 -25.5zM41 0v63h25q61 0 98 52q39 57 4 144l-102 252l60 22l91 -228q29 -73 29 -125q0 -37 -17 -71t-38 -46h68q48 0 66 18.5t18 62.5v475l64 23v-511
q0 -70 -32.5 -100.5t-106.5 -30.5h-227z" />
    <glyph glyph-name="uniFEF6" unicode="&#xfee0;&#xfe82;" horiz-adv-x="535" arabic-form="final" 
d="M18 641v52q25 23 55 24t68 -8.5t59 -8.5q36 2 67 24v-52q-30 -20 -64 -22q-22 -1 -60.5 8.5t-69 8t-55.5 -25.5zM41 0v63h25q61 0 98 52q39 57 4 144l-102 252l60 22l92 -228q28 -71 28 -125q0 -37 -17 -71t-38 -46h69q48 0 66 18.5t18 62.5v475l63 23v-511
q0 -42 -11 -67h154v-64h-163v45q-32 -45 -119 -45h-227z" />
    <glyph glyph-name="uniFEF7" unicode="&#xfedf;&#xfe84;" horiz-adv-x="489" arabic-form="isolated" 
d="M24 652v44h56q-23 20 -23 54q0 37 24.5 59t67.5 22h59v-44h-47q-58 0 -58 -45q0 -9 2.5 -17.5t17 -18.5t38.5 -10h47v-44h-184zM41 0v63h25q61 0 98 52q39 57 4 144l-102 252l60 22l91 -228q29 -73 29 -125q0 -37 -17 -71t-38 -46h68q48 0 66 18.5t18 62.5v475l64 23
v-511q0 -70 -32.5 -100.5t-106.5 -30.5h-227z" />
    <glyph glyph-name="uniFEF8" unicode="&#xfee0;&#xfe84;" horiz-adv-x="535" arabic-form="final" 
d="M24 652v44h56q-23 20 -23 54q0 37 24.5 59t67.5 22h59v-44h-47q-58 0 -58 -45q0 -9 2.5 -17.5t17 -18.5t38.5 -10h47v-44h-184zM41 0v63h25q61 0 98 52q39 57 4 144l-102 252l60 22l92 -228q28 -71 28 -125q0 -37 -17 -71t-38 -46h69q48 0 66 18.5t18 62.5v475l63 23
v-511q0 -42 -11 -67h154v-64h-163v45q-32 -45 -119 -45h-227z" />
    <glyph glyph-name="uniFEF9" unicode="&#xfedf;&#xfe88;" horiz-adv-x="489" arabic-form="isolated" 
d="M41 0v63h25q61 0 98 52q39 57 4 144l-102 252l60 22l91 -228q29 -73 29 -125q0 -37 -17 -71t-38 -46h68q48 0 66 18.5t18 62.5v475l64 23v-511q0 -70 -32.5 -100.5t-106.5 -30.5h-227zM69 -283v43h55q-23 20 -23 54q0 37 24.5 59t68.5 22h58v-43h-47q-57 0 -57 -46
q0 -9 2.5 -17.5t16.5 -18.5t38 -10h47v-43h-183z" />
    <glyph glyph-name="uniFEFA" unicode="&#xfee0;&#xfe88;" horiz-adv-x="535" arabic-form="final" 
d="M41 0v63h25q61 0 98 52q39 57 4 144l-102 252l60 22l92 -228q28 -71 28 -125q0 -37 -17 -71t-38 -46h69q48 0 66 18.5t18 62.5v475l63 23v-511q0 -42 -11 -67h154v-64h-163v45q-32 -45 -119 -45h-227zM63 -283v43h55q-23 20 -23 54q0 37 24.5 59t68.5 22h58v-43h-47
q-57 0 -57 -46q0 -9 2.5 -17.5t16.5 -18.5t38 -10h47v-43h-183z" />
    <glyph glyph-name="uniFEFB" unicode="&#xfedf;&#xfe8e;" horiz-adv-x="489" arabic-form="isolated" 
d="M41 0v63h25q61 0 98 52q39 57 4 144l-102 252l60 22l91 -228q29 -73 29 -125q0 -37 -17 -71t-38 -46h68q48 0 66 18.5t18 62.5v475l64 23v-511q0 -70 -32.5 -100.5t-106.5 -30.5h-227z" />
    <glyph glyph-name="uniFEFC" unicode="&#xfee0;&#xfe8e;" horiz-adv-x="535" arabic-form="final" 
d="M41 0v63h25q61 0 98 52q39 57 4 144l-102 252l60 22l92 -228q28 -71 28 -125q0 -37 -17 -71t-38 -46h69q48 0 66 18.5t18 62.5v475l63 23v-511q0 -42 -11 -67h154v-64h-163v45q-32 -45 -119 -45h-227z" />
    <glyph glyph-name="logo" unicode="&#x627;&#xfedf;&#xfed8;&#xfe92;&#xfeb2;" horiz-adv-x="3089" 
d="M2872 570l197 182v-444q0 -257 -174 -351v471q0 95 -23 142zM2648 425q0 92 -23 142l199 184v-751h-2203q-30 -89 -108 -142.5t-195 -53.5q-132 0 -215 84.5t-83 207.5q0 98 58.5 175t149.5 104q-64 -56 -92 -133t-19 -143t54 -112t115 -46q169 0 169 210v86q0 51 -15 79
l192 158v-308h106v92q0 51 -14 79l191 159v-330h106v114q0 51 -14 79l191 159v-352h312v92q0 49 -15 79l191 159v-330h328v52q0 134 75.5 204.5t218.5 70.5h191v-327h149v259zM2221 533q-36 0 -61.5 25.5t-25.5 61.5t25.5 61.5t61.5 25.5t61 -25.5t25 -61.5t-25 -61.5
t-61 -25.5zM2411 533q-36 0 -61.5 25.5t-25.5 61.5t25.5 61.5t61.5 25.5t61.5 -25.5t25.5 -61.5t-25.5 -61.5t-61.5 -25.5zM2188 166h135v161h-39q-96 0 -96 -107v-54zM1596 -48q43 0 73.5 -30.5t30.5 -73.5q0 -44 -30 -74t-74 -30q-43 0 -73.5 30.5t-30.5 73.5t30.5 73.5
t73.5 30.5z" />
    <glyph glyph-name="uniFC5E" unicode="&#xfc5e;" arabic-form="isolated" 
d="M21 735l-21 16l40 54q35 -28 72 -28t50 10l-16 6q-19 7 -31 25t-12 39q0 29 21 50t50 21t49.5 -21t20.5 -50q0 -17 -8 -35q-31 -52 -91 -66t-98 14l-7 -10q-3 -5 -11 -15q-4 -4 -8 -10zM174 812q19 0 32 13t13 32t-13 32.5t-32 13.5t-32 -13.5t-13 -32.5t13 -32t32 -13z
M70 557q-70 0 -70 65v77h35v-73q0 -37 34 -37q16 0 25.5 10t9.5 27v73h35v-73q0 -37 34 -37q35 0 35 37v73h35v-77q0 -65 -69 -65q-26 0 -45 11l-7 5l-8 -5q-19 -11 -44 -11z" />
    <glyph glyph-name="uniFC5F" unicode="&#xfc5f;" arabic-form="isolated" 
d="M70 730q-70 0 -70 65v77h35v-73q0 -37 34 -37q16 0 25.5 10t9.5 27v73h35v-73q0 -37 34 -37q35 0 35 37v73h35v-77q0 -65 -69 -65q-26 0 -45 11l-7 5l-8 -5q-19 -11 -44 -11zM0 608v39l239 58v-38zM0 502v39l239 58v-38z" />
    <glyph glyph-name="uniFC60" unicode="&#xfc60;" arabic-form="isolated" 
d="M0 732v39l239 58v-38zM70 557q-70 0 -70 65v77h35v-73q0 -37 34 -37q16 0 25.5 10t9.5 27v73h35v-73q0 -37 34 -37q35 0 35 37v73h35v-77q0 -65 -69 -65q-26 0 -45 11l-7 5l-8 -5q-19 -11 -44 -11z" />
    <glyph glyph-name="uniFC61" unicode="&#xfc61;" arabic-form="isolated" 
d="M66 747q-9 0 -25 2h-15l5 26q5 -1 15 -1h4q14 -2 27 -2q38 0 64 11q-32 5 -47.5 25t-15.5 44q0 29 21 50t50 21t50 -21t21 -50q0 -18 -9 -35q-36 -70 -145 -70zM149 807q19 0 32 13t13 32t-13 32.5t-32 13.5t-32 -13.5t-13 -32.5t13 -32t32 -13zM70 556q-70 0 -70 65v77
h35v-73q0 -37 34 -37q16 0 25.5 10t9.5 27v73h35v-73q0 -37 34 -37q35 0 35 37v73h35v-77q0 -65 -69 -65q-26 0 -45 11l-7 5l-8 -5q-19 -11 -44 -11z" />
    <glyph glyph-name="uniFC62" unicode="&#xfc62;" arabic-form="isolated" 
d="M70 647q-70 0 -70 65v77h35v-73q0 -37 34 -37q16 0 25.5 10t9.5 27v73h35v-73q0 -37 34 -37q35 0 35 37v73h35v-77q0 -65 -69 -65q-26 0 -45 11l-7 5l-8 -5q-19 -11 -44 -11zM0 541v39l239 58v-38z" />
    <glyph glyph-name="uniFD3C" unicode="&#xfd3c;" horiz-adv-x="258" arabic-form="final" 
d="M-6 835v39l239 58v-38zM-6 728v39l239 58v-38zM218 0q-74 0 -106.5 30.5t-32.5 100.5v487l63 24v-498q0 -38 22 -59.5t62 -21.5h47v-63h-55z" />
    <glyph glyph-name="uniFD3D" unicode="&#xfd3d;" horiz-adv-x="220" arabic-form="isolated" 
d="M-2 845v39l239 58v-38zM-2 738v39l239 58v-38zM78 -3v621l65 24v-621z" />
    <glyph glyph-name="uniFDFA" unicode="&#xfdfa;" horiz-adv-x="1519" arabic-form="isolated" 
d="M868 295l-2 2l13 41q-15 11 -24 23h-2q-30 -56 -66 -56q-27 0 -45 19q-20 22 -27 72h-2q-21 -49 -88 -76l-21 -9l-21 -9q-41 -15 -58 -29q-8 -6 -8 -13q0 -15 43 -27q31 -6 76 -11q26 -3 91 -3q128 0 224 10q105 11 213 27l1 -2l-38 -50l-74 -11q-86 -12 -206 -24
q-53 -5 -138 -5q-122 0 -173 13q-56 15 -56 54q0 9 17 45q19 32 54 53t107 53q37 16 48 40q10 21 10 71q0 89 -2 145q-3 81 -3 166q7 12 25 37l4 -2q6 -132 6 -385q0 -95 55 -95q13 0 24 6q14 9 37 45q3 3 6 0q14 -17 31 -28q33 72 76 107q39 32 74 32q29 0 54 -22
q24 -24 24 -58q0 -37 -19 -66q-39 -61 -140 -61q-43 0 -70 13q-14 -22 -30 -32zM641 828l5 -3q-2 -5 -2 -17q0 -34 20 -79l-24 -16q0 -8 2.5 -48t3.5 -61q2 -68 2 -87q0 -26 -5 -39q-11 -27 -21 -41l-6 3q6 18 6 48q0 70 -6 137t-6 132q0 28 7 40q6 12 24 31zM820 744h-1
q-9 -17 -24 -17q-23 0 -23 35q0 17 4 28l12 8v-1q-4 -12 -4 -25q0 -16 11 -16q12 0 15 16l4 29l11 6v-1v-5v-5q0 -23 11 -29q8 -4 12 -4q7 0 7 6q0 7 -6 33q3 5 7.5 11t5.5 8h2q4 -40 4 -41v-16q0 -10 -6.5 -20t-17.5 -10q-13 0 -24 10zM437 716h-1q-8 -17 -24 -17
q-24 0 -24 35q0 15 5 28l12 8v-1q-4 -12 -4 -25q0 -16 11 -16q12 0 15 16l4 29l11 6v-1v-5v-5q0 -23 11 -29q8 -4 12 -4q7 0 7 6q0 7 -6 34q12 16 13 18h2q4 -40 4 -41v-16q0 -10 -6.5 -20t-17.5 -10q-13 0 -24 10zM768 535l-3 3l17 48q158 73 404 153l2 -3l-27 -43
q-96 -31 -195 -71q-152 -60 -198 -87zM323 478h-2q-19 -18 -31 -23q-13 -6 -37 -6q-54 0 -54 34q0 13 10 36q9 24 23 39q32 35 86 63v31q10 15 22 25h4v-44l23 11l2 -5l-27 -37v-79q0 -19 10.5 -30t29.5 -11t32 8q18 13 18 29l-5 140q13 18 23 28l3 -3l4 -123q0 -51 29 -62
q20 -13 39 -13q17 0 17 15l-2 16q-2 19 -4 27l-6 34q-8 36 -11 65q-2 20 -2 23q10 24 21 37l4 -2q0 -25 12 -95t12 -91q0 -30 -14 -54t-34 -24q-40 0 -67 36h-2q-9 -16 -31 -28q-23 -13 -44 -13q-42 0 -51 46zM686 -68q72 0 169 13q28 4 135 24q27 5 44 9q18 3 24 3
q20 0 20 -19q0 -60 -70 -138l-5 15q40 53 40 78q0 9 -10 9q-6 0 -40 -8q-109 -25 -198 -35q-70 -8 -140 -8q-97 0 -151 20q-72 26 -87 96h-2q-17 -46 -51 -58q46 -31 46 -84q0 -35 -16 -56q-15 -19 -35 -19q-47 0 -74 55l-2 -1q-3 -42 -43 -74q-48 -38 -129 -71l-89 6l-2 6
q62 23 113 48q40 19 94 56q35 24 46 63q4 15 6 29q2 13 6 20l21 41q65 15 94 45q10 11 10 38q-204 12 -222 104h-2q-18 -17 -37 -24q-16 -5 -42 -5q-34 0 -52.5 12t-18.5 31q0 27 18 57q31 53 125 105l-1 37q5 10 23 30l4 -1l2 -53l39 23l3 -3l-19 -34q-8 -12 -23 -25l1 -77
q0 -56 49 -84q45 -26 155 -35q-1 45 -2.5 141t-2.5 145q2 3 6 8.5t5 7.5q4 6 15 17l2 -1q2 -24 4 -102q0 -75 1 -109v-109q11 -1 47.5 -3t57.5 -3q43 -3 121 -3q75 0 159 6q100 7 159 17q52 11 87 46q6 6 12 0q28 -37 57 -37q12 0 28 14q20 23 25 49q5 25 5 86q0 111 -1 166
t-1 169q2 3 6.5 9t5.5 8l12 17l3 -2q4 -83 4 -184v-183q0 -76 13 -103t63 -37v3q-31 26 -31 75q0 30 17 57t38 41q20 11 42 11q50 0 93 -68l-5 -5q-32 25 -71 25q-31 0 -57 -14q-27 -14 -27 -29q0 -26 27 -56q23 -25 57 -25q14 0 31 7q41 17 79 43l3 -3l-17 -47
q-89 -63 -185 -63q-74 0 -96 65h-2q-8 -32 -31 -56q-20 -22 -44 -22q-33 0 -73 31h-2q-26 -33 -114 -48q-37 -6 -129 -14q-74 -6 -151 -6q-136 0 -213 8q7 -48 79 -77q61 -24 165 -24zM318 505v79q-41 -22 -67 -41q-24 -17 -24 -26t11.5 -15t27.5 -6q28 0 52 9zM1245 388
l-1 1l7 31q50 26 180 76l1 -1l-17 -31q-125 -51 -170 -76zM914 373q25 -11 57 -11q60 0 110 29q18 13 18 26q0 21 -22 38q-17 15 -39 15q-48 0 -95 -55q-18 -21 -29 -42zM244 217l-2 2l8 28q40 21 143 60l1 -2l-17 -28q-15 -7 -40.5 -17.5t-32.5 -13.5q-45 -19 -60 -29z
M183 174l-4 99q-60 -34 -80 -52q-26 -23 -26 -35q0 -9 14 -15q21 -9 67 -4q8 1 29 7zM933 -310v7q54 19 122 50q37 17 92 47q48 27 71 47t23 28q0 6 -10 9q-7 2 -37 2q-71 0 -71 61q0 43 28 72q24 26 50 26q22 0 41 -20q30 -36 30 -115q0 -65 -52 -114q-53 -50 -189 -107z
M1247 -77h3q-5 30 -19 50q-15 21 -38 21q-19 0 -32 -12q-14 -12 -14 -24q0 -17 50 -21q7 -1 18.5 -2.5t15.5 -1.5q16 -3 16 -10zM303 -93q-4 -7 -4 -21q0 -15 18 -38q17 -21 45 -21q16 0 25 9q-19 60 -84 71zM693 -240l34 52q37 -27 60 -54q-10 -23 -32 -48q-31 28 -62 50z
M596 -249l34 52q42 -31 62 -51q-14 -28 -33 -51q-26 24 -63 50z" />
    <glyph glyph-name="uniFE82" unicode="&#x622;" horiz-adv-x="258" arabic-form="final" 
d="M-8 726v52q25 23 55 24t68 -8.5t59 -8.5q36 2 67 24v-52q-30 -20 -64 -22q-22 -1 -60.5 8.5t-69 8t-55.5 -25.5zM218 0q-74 0 -106.5 30.5t-32.5 100.5v487l63 24v-498q0 -38 22 -59.5t62 -21.5h47v-63h-55z" />
    <glyph glyph-name="uniFE84" unicode="&#x623;" horiz-adv-x="261" arabic-form="final" 
d="M11 671v44h55q-23 20 -23 54q0 37 24.5 59t68.5 22h58v-44h-47q-57 0 -57 -45q0 -9 2.5 -17.5t16.5 -18.5t38 -10h47v-44h-183zM220 0q-74 0 -106.5 30.5t-32.5 100.5v434l63 23v-444q0 -38 22 -59.5t62 -21.5h48v-63h-56z" />
    <glyph glyph-name="uniFE86" unicode="&#x624;" horiz-adv-x="509" arabic-form="final" 
d="M192 556v44h55q-23 20 -23 54q0 37 24.5 59t68.5 22h58v-44h-47q-57 0 -57 -45q0 -9 2.5 -17.5t16.5 -18.5t38 -10h47v-44h-183zM248 -226l-55 31q119 79 136 178l3 17h-92q-107 0 -158 57.5t-51 137.5q0 85 55.5 145t145.5 76q61 11 167 2v-311q0 -19 -1 -29v-15h126
v-63h-131l-2 -12q-12 -72 -45 -121.5t-98 -92.5zM242 63h93v293q-30 2 -55 1q-81 -3 -132 -47.5t-51 -114.5q0 -22 5.5 -42t19.5 -42t45 -35t75 -13z" />
    <glyph glyph-name="uniFE88" unicode="&#x625;" horiz-adv-x="258" arabic-form="final" 
d="M218 0q-74 0 -106.5 30.5t-32.5 100.5v487l63 24v-498q0 -38 22 -59.5t62 -21.5h47v-63h-55zM27 -283v43h55q-23 20 -23 54q0 37 25 59t68 22h58v-43h-46q-58 0 -58 -46q0 -9 2.5 -17.5t17 -18.5t38.5 -10h46v-43h-183z" />
    <glyph glyph-name="uniFE8A" unicode="&#x626;" horiz-adv-x="882" arabic-form="final" 
d="M50 351v43h56q-23 20 -23 54q0 37 24.5 59t67.5 22h59v-43h-47q-58 0 -58 -46q0 -9 2.5 -17.5t17 -18.5t38.5 -10h47v-43h-184zM334 -149q-134 0 -206 80q-67 73 -56 178q6 59 21 87l74 30q-32 -60 -32 -135q0 -84 58.5 -131t143.5 -47h126v302q0 83 43 124.5t134 45.5h7
q6 0 18 0.5t18 0.5q52 0 109 -6v-244q0 -72 73 -72h32v-64h-48q-64 0 -92.5 34.5t-28.5 86.5v198q-55 2 -80 1l-7 -1q-68 -2 -90.5 -26.5t-22.5 -76.5v-365h-194z" />
    <glyph glyph-name="uniFE8B" unicode="&#x626;" horiz-adv-x="268" arabic-form="initial" 
d="M70 503v43h55q-23 20 -23 54q0 37 24.5 59t67.5 22h59v-43h-47q-57 0 -57 -46q0 -9 2.5 -17.5t16.5 -18.5t38 -10h47v-43h-183zM-15 0v63h70q82 0 82 79v228l64 23v-262q0 -70 -32.5 -100.5t-105.5 -30.5h-78z" />
    <glyph glyph-name="uniFE8C" unicode="&#x626;" horiz-adv-x="325" arabic-form="medial" 
d="M70 503v43h55q-23 20 -23 54q0 37 24.5 59t67.5 22h59v-43h-47q-57 0 -57 -46q0 -9 2.5 -17.5t16.5 -18.5t38 -10h47v-43h-183zM-15 0v63h66q40 0 61.5 20.5t21.5 58.5v228l63 23v-262q0 -31 -5 -50l-4 -17h152v-64h-163v44l-9 -9q-31 -35 -109 -35h-74z" />
    <glyph glyph-name="uniFE8E" unicode="&#x627;" horiz-adv-x="258" arabic-form="final" 
d="M218 0q-74 0 -106.5 30.5t-32.5 100.5v487l63 24v-498q0 -38 22 -59.5t62 -21.5h47v-63h-55z" />
    <glyph glyph-name="uniFE90" unicode="&#x628;" horiz-adv-x="823" arabic-form="final" 
d="M246 0q-79 0 -126.5 44.5t-47.5 119.5v108l64 23v-131q0 -49 28.5 -75t81.5 -26h300q37 0 63.5 26.5t26.5 63.5v262h64v-281q0 -26 -11 -51l-8 -19h157v-64h-174v43q-41 -43 -98 -43h-320zM412 -231l-51 46l51 46l51 -46z" />
    <glyph glyph-name="uniFE91" unicode="&#x628;" horiz-adv-x="268" arabic-form="initial" 
d="M-15 0v63h70q82 0 82 79v228l64 23v-262q0 -70 -32.5 -100.5t-105.5 -30.5h-78zM81 -231l-51 46l51 46l50 -46z" />
    <glyph glyph-name="uniFE92" unicode="&#x628;" horiz-adv-x="325" arabic-form="medial" 
d="M-15 0v63h66q40 0 61.5 20.5t21.5 58.5v228l63 23v-262q0 -31 -5 -50l-4 -17h152v-64h-163v44l-9 -9q-31 -35 -109 -35h-74zM154 -231l-51 46l51 46l50 -46z" />
    <glyph glyph-name="uniFE94" unicode="&#x629;" horiz-adv-x="544" arabic-form="final" 
d="M257 550l-51 45l51 47l51 -47zM389 550l-51 45l51 47l50 -47zM356 0v355l-13 1h-25q-88 0 -142 -43q-28 -22 -43.5 -57t-13.5 -69q1 -15 3 -26t12 -31.5t26.5 -34t50.5 -24t80 -10.5h36l12 1l-38 -61h-36q-83 0 -146 45.5t-68 135.5q-6 117 86 185q78 58 206 58
q44 0 77 -4v-358h139v-63h-203z" />
    <glyph glyph-name="uniFE96" unicode="&#x62a;" horiz-adv-x="823" arabic-form="final" 
d="M336 490l-51 45l51 46l51 -46zM467 490l-50 45l50 46l51 -46zM246 0q-79 0 -126.5 44.5t-47.5 119.5v108l64 23v-131q0 -49 28.5 -75t81.5 -26h300q37 0 63.5 26.5t26.5 63.5v262h64v-281q0 -26 -11 -51l-8 -19h157v-64h-174v43q-41 -43 -98 -43h-320z" />
    <glyph glyph-name="uniFE97" unicode="&#x62a;" horiz-adv-x="273" arabic-form="initial" 
d="M116 558l-51 46l51 46l51 -46zM248 558l-51 46l51 46l50 -46zM-15 0v63h70q82 0 82 79v228l64 23v-262q0 -70 -32.5 -100.5t-105.5 -30.5h-78z" />
    <glyph glyph-name="uniFE98" unicode="&#x62a;" horiz-adv-x="325" arabic-form="medial" 
d="M114 550l-51 45l51 47l50 -47zM245 550l-50 45l50 47l51 -47zM-15 0v63h66q40 0 61.5 20.5t21.5 58.5v228l63 23v-262q0 -31 -5 -50l-4 -17h152v-64h-163v44l-9 -9q-31 -35 -109 -35h-74z" />
    <glyph glyph-name="uniFE9A" unicode="&#x62b;" horiz-adv-x="823" arabic-form="final" 
d="M397 599l-46 41l46 42l45 -42zM336 490l-51 45l51 46l51 -46zM467 490l-50 45l50 46l51 -46zM246 0q-79 0 -126.5 44.5t-47.5 119.5v108l64 23v-131q0 -49 28.5 -75t81.5 -26h300q37 0 63.5 26.5t26.5 63.5v262h64v-281q0 -26 -11 -51l-8 -19h157v-64h-174v43
q-41 -43 -98 -43h-320z" />
    <glyph glyph-name="uniFE9B" unicode="&#x62b;" horiz-adv-x="250" arabic-form="initial" 
d="M177 635l-46 41l46 41l45 -41zM116 525l-51 46l51 46l51 -46zM248 525l-51 46l51 46l50 -46zM-15 0v63h70q82 0 82 79v228l64 23v-262q0 -70 -32.5 -100.5t-105.5 -30.5h-78z" />
    <glyph glyph-name="uniFE9C" unicode="&#x62b;" horiz-adv-x="325" arabic-form="medial" 
d="M173 635l-46 41l46 41l45 -41zM112 525l-51 46l51 46l51 -46zM244 525l-51 46l51 46l50 -46zM-15 0v63h66q40 0 61.5 20.5t21.5 58.5v228l63 23v-262q0 -31 -5 -50l-4 -17h152v-64h-163v44l-9 -9q-31 -35 -109 -35h-74z" />
    <glyph glyph-name="uniFE9E" unicode="&#x62c;" horiz-adv-x="638" arabic-form="final" 
d="M292 -338q-111 0 -178.5 57.5t-67.5 148.5q0 86 59.5 140.5t154.5 54.5h232q-24 35 -43 94q-8 26 -12 38.5t-13.5 36t-17 36t-21 31t-27.5 27t-34 18.5t-43 12t-53 -0.5t-64 -10.5l27 68q44 7 78.5 8.5t63.5 -8.5t50.5 -22.5t39.5 -33.5t30 -40.5t22.5 -44t17.5 -45
t14 -42.5q1 -5 2 -7q20 -66 41 -90.5t62 -24.5h41v-63h-389q-67 0 -109 -37t-42 -96q0 -64 52 -103t137 -39q38 0 70 9l-21 -67q-30 -5 -59 -5zM496 -205l-51 45l51 46l50 -46z" />
    <glyph glyph-name="uniFE9F" unicode="&#x62c;" horiz-adv-x="631" arabic-form="initial" 
d="M-20 0v63h470q-25 34 -44 94q-8 26 -12 38.5t-13.5 36t-17 36t-21 31t-27.5 27t-34 18.5t-42.5 12t-52.5 -0.5t-64 -10.5l27 68q192 41 272 -117q18 -34 45 -118q21 -66 42 -90.5t62 -24.5h19l-26 -63h-583zM332 -238l-50 45l50 46l51 -46z" />
    <glyph glyph-name="uniFEA0" unicode="&#x62c;" horiz-adv-x="608" arabic-form="medial" 
d="M-20 0v63h469q-24 35 -43 94q-8 26 -12 38.5t-13.5 36t-17 36t-21 31t-27.5 27t-34 18.5t-42.5 12t-52.5 -0.5t-64 -10.5l26 68q44 7 78.5 8.5t63.5 -8.5t50.5 -22.5t39.5 -33.5t30 -40.5t22.5 -44t17.5 -45t14 -42.5q1 -5 2 -7q20 -66 41 -90.5t62 -24.5h49v-63h-638z
M332 -238l-50 45l50 46l51 -46z" />
    <glyph glyph-name="uniFEA2" unicode="&#x62d;" horiz-adv-x="638" arabic-form="final" 
d="M292 -338q-111 0 -178.5 57.5t-67.5 148.5q0 86 59.5 140.5t154.5 54.5h232q-24 35 -43 94q-8 26 -12 38.5t-13.5 36t-17 36t-21 31t-27.5 27t-34 18.5t-43 12t-53 -0.5t-64 -10.5l27 68q44 7 78.5 8.5t63.5 -8.5t50.5 -22.5t39.5 -33.5t30 -40.5t22.5 -44t17.5 -45
t14 -42.5q1 -5 2 -7q20 -66 41 -90.5t62 -24.5h41v-63h-389q-67 0 -109 -37t-42 -96q0 -64 52 -103t137 -39q38 0 70 9l-21 -67q-30 -5 -59 -5z" />
    <glyph glyph-name="uniFEA3" unicode="&#x62d;" horiz-adv-x="636" arabic-form="initial" 
d="M-15 0v63h470q-25 34 -44 94q-8 26 -12 38.5t-13.5 36t-17 36t-21 31t-27.5 27t-34 18.5t-42.5 12t-52.5 -0.5t-64 -10.5l27 68q192 41 272 -117q18 -34 45 -118q21 -66 42 -90.5t62 -24.5h19l-26 -63h-583z" />
    <glyph glyph-name="uniFEA4" unicode="&#x62d;" horiz-adv-x="608" arabic-form="medial" 
d="M-15 0v63h469q-24 35 -43 94q-8 26 -12 38.5t-13.5 36t-17 36t-21 31t-27.5 27t-34 18.5t-42.5 12t-52.5 -0.5t-64 -10.5l26 68q44 7 78.5 8.5t63.5 -8.5t50.5 -22.5t39.5 -33.5t30 -40.5t22.5 -44t17.5 -45t14 -42.5q1 -5 2 -7q20 -66 41 -90.5t62 -24.5h49v-63h-638z
" />
    <glyph glyph-name="uniFEA6" unicode="&#x62e;" horiz-adv-x="638" arabic-form="final" 
d="M332 567l-51 46l51 46l51 -46zM292 -338q-111 0 -178.5 57.5t-67.5 148.5q0 86 59.5 140.5t154.5 54.5h232q-24 35 -43 94q-8 26 -12 38.5t-13.5 36t-17 36t-21 31t-27.5 27t-34 18.5t-43 12t-53 -0.5t-64 -10.5l27 68q44 7 78.5 8.5t63.5 -8.5t50.5 -22.5t39.5 -33.5
t30 -40.5t22.5 -44t17.5 -45t14 -42.5q1 -5 2 -7q20 -66 41 -90.5t62 -24.5h41v-63h-389q-67 0 -109 -37t-42 -96q0 -64 52 -103t137 -39q38 0 70 9l-21 -67q-30 -5 -59 -5z" />
    <glyph glyph-name="uniFEA7" unicode="&#x62e;" horiz-adv-x="636" arabic-form="initial" 
d="M299 567l-51 46l51 46l51 -46zM-15 0v63h470q-25 34 -44 94q-8 26 -12 38.5t-13.5 36t-17 36t-21 31t-27.5 27t-34 18.5t-42.5 12t-52.5 -0.5t-64 -10.5l27 68q192 41 272 -117q18 -34 45 -118q21 -66 42 -90.5t62 -24.5h19l-26 -63h-583z" />
    <glyph glyph-name="uniFEA8" unicode="&#x62e;" horiz-adv-x="613" arabic-form="medial" 
d="M299 567l-51 46l51 46l51 -46zM-15 0v63h469q-24 35 -43 94q-8 26 -12 38.5t-13.5 36t-17 36t-21 31t-27.5 27t-34 18.5t-42.5 12t-52.5 -0.5t-64 -10.5l26 68q44 7 78.5 8.5t63.5 -8.5t50.5 -22.5t39.5 -33.5t30 -40.5t22.5 -44t17.5 -45t14 -42.5q1 -5 2 -7
q20 -66 41 -90.5t62 -24.5h49v-63h-638z" />
    <glyph glyph-name="uniFEAA" unicode="&#x62f;" horiz-adv-x="530" arabic-form="final" 
d="M47 0v63h307v142q0 87 -34 121.5t-119 34.5q-37 0 -73 -8v55q64 16 109 16q100 0 145 -62q36 -50 36 -160v-139h127v-63h-498z" />
    <glyph glyph-name="uniFEAC" unicode="&#x630;" horiz-adv-x="530" arabic-form="final" 
d="M245 563l-51 45l51 46l51 -46zM47 0v63h307v142q0 87 -34 121.5t-119 34.5q-37 0 -73 -8v55q64 16 109 16q100 0 145 -62q36 -50 36 -160v-139h127v-63h-498z" />
    <glyph glyph-name="uniFEAE" unicode="&#x631;" horiz-adv-x="306" arabic-form="final" 
d="M48 -240l-48 36q34 23 56.5 50.5t34 50.5t17 60.5t6.5 61.5t1 72v278l63 23v-329h143v-63h-146l-1 -13q-7 -89 -33.5 -135t-92.5 -92z" />
    <glyph glyph-name="uniFEB0" unicode="&#x632;" horiz-adv-x="306" arabic-form="final" 
d="M150 529l-51 45l51 47l50 -47zM48 -240l-48 36q34 23 56.5 50.5t34 50.5t17 60.5t6.5 61.5t1 72v278l63 23v-329h143v-63h-146l-1 -13q-7 -89 -33.5 -135t-92.5 -92z" />
    <glyph glyph-name="uniFEB2" unicode="&#x633;" horiz-adv-x="1123" arabic-form="final" 
d="M310 -162q-126 0 -186.5 57t-60.5 136v147l63 22v-163q0 -21 7 -40.5t24.5 -41t57 -34t95.5 -12.5t95 12.5t56.5 34t24 40.5t6.5 41v296l64 23v-292l86 -1q40 -1 61.5 19.5t21.5 59.5v191l64 23v-225q0 -27 -6 -50l-4 -17l94 -1q40 -1 61.5 19.5t21.5 59.5v228l64 23
v-262q0 -27 -6 -50l-4 -18h128v-63h-138v45l-8 -9q-33 -36 -110 -36h-115v43l-7 -8q-29 -35 -109 -35h-94l-13 -34q-23 -62 -83.5 -95t-150.5 -33z" />
    <glyph glyph-name="uniFEB3" unicode="&#x633;" horiz-adv-x="876" arabic-form="initial" 
d="M-15 0v63h202q82 0 82 79v191l64 22v-225q0 -26 -5 -49l-5 -18h96q83 0 83 79v191l63 22v-225q0 -32 -5 -49l-4 -18h94q83 0 83 79v228l63 23v-263q0 -69 -32 -99.5t-105 -30.5h-114v44l-8 -9q-32 -35 -109 -35h-115v44l-9 -9q-32 -35 -109 -35h-210z" />
    <glyph glyph-name="uniFEB4" unicode="&#x633;" horiz-adv-x="900" arabic-form="medial" 
d="M-15 0v63h202q40 0 61.5 20.5t21.5 58.5v191l63 23v-225q0 -31 -5 -50l-4 -17l95 -1q40 -1 61.5 19.5t21.5 59.5v191l64 23v-225q0 -27 -6 -50l-4 -17l94 -1q40 -1 61.5 19.5t21.5 59.5v228l64 23v-262q0 -27 -6 -50l-4 -18h128v-63h-138v45l-8 -9q-33 -36 -110 -36h-114
v44l-8 -9q-32 -35 -109 -35h-115v44l-9 -9q-31 -35 -109 -35h-210z" />
    <glyph glyph-name="uniFEB6" unicode="&#x634;" horiz-adv-x="1123" arabic-form="final" 
d="M779 635l-46 41l46 41l45 -41zM718 525l-51 46l51 46l51 -46zM850 525l-51 46l51 46l50 -46zM310 -162q-126 0 -186.5 57t-60.5 136v147l63 22v-163q0 -21 7 -40.5t24.5 -41t57 -34t95.5 -12.5t95 12.5t56.5 34t24 40.5t6.5 41v296l64 23v-292l86 -1q40 -1 61.5 19.5
t21.5 59.5v191l64 23v-225q0 -27 -6 -50l-4 -17l94 -1q40 -1 61.5 19.5t21.5 59.5v228l64 23v-262q0 -27 -6 -50l-4 -18h128v-63h-138v45l-8 -9q-33 -36 -110 -36h-115v43l-7 -8q-29 -35 -109 -35h-94l-13 -34q-23 -62 -83.5 -95t-150.5 -33z" />
    <glyph glyph-name="uniFEB7" unicode="&#x634;" horiz-adv-x="876" arabic-form="initial" 
d="M561 635l-46 41l46 41l45 -41zM500 525l-51 46l51 46l51 -46zM632 525l-51 46l51 46l50 -46zM-15 0v63h202q82 0 82 79v191l64 22v-225q0 -26 -5 -49l-5 -18h96q83 0 83 79v191l63 22v-225q0 -32 -5 -49l-4 -18h94q83 0 83 79v228l63 23v-263q0 -69 -32 -99.5t-105 -30.5
h-114v44l-8 -9q-32 -35 -109 -35h-115v44l-9 -9q-32 -35 -109 -35h-210z" />
    <glyph glyph-name="uniFEB8" unicode="&#x634;" horiz-adv-x="905" arabic-form="medial" 
d="M561 635l-46 41l46 41l45 -41zM500 525l-51 46l51 46l51 -46zM632 525l-51 46l51 46l50 -46zM-15 0v63h202q40 0 61.5 20.5t21.5 58.5v191l63 23v-225q0 -31 -5 -50l-4 -17l95 -1q40 -1 61.5 19.5t21.5 59.5v191l64 23v-225q0 -27 -6 -50l-4 -17l94 -1q40 -1 61.5 19.5
t21.5 59.5v228l64 23v-262q0 -27 -6 -50l-4 -18h128v-63h-138v45l-8 -9q-33 -36 -110 -36h-114v44l-8 -9q-32 -35 -109 -35h-115v44l-9 -9q-31 -35 -109 -35h-210z" />
    <glyph glyph-name="uniFEBA" unicode="&#x635;" horiz-adv-x="1104" arabic-form="final" 
d="M311 -202q-126 0 -186.5 57t-60.5 136v193l63 24v-211q0 -21 7 -40.5t24.5 -40.5t57 -34t95.5 -13t95 13t56.5 34t24 40.5t6.5 40.5v369l64 23v-82l85 43q58 29 120 48q44 13 80 13q56 0 99.5 -30.5t65.5 -84.5q19 -47 19 -108q0 -76 -36 -125h129v-63h-150v40
q-47 -40 -112 -40h-297l-6 -43q-3 -18 -10 -35.5t-24.5 -41t-42 -40.5t-68 -29.5t-98.5 -12.5zM557 64h298q16 0 31 4t33.5 15.5t30 38.5t11.5 66q0 48 -15 85q-30 75 -106 75q-29 0 -58 -10q-81 -24 -200 -95l-25 -15v-164z" />
    <glyph glyph-name="uniFEBB" unicode="&#x635;" horiz-adv-x="671" arabic-form="initial" 
d="M-15 0v64h112v302l64 23v-82l85 43q59 30 121 48q42 13 79 13q57 0 101.5 -30.5t64.5 -84.5q19 -51 19 -108q0 -96 -51 -142t-119 -46h-476zM161 64h298q16 0 31 4t33.5 15.5t30 38.5t11.5 66q0 48 -15 85q-30 75 -106 75q-29 0 -58 -10q-81 -24 -200 -95l-25 -15v-164z
" />
    <glyph glyph-name="uniFEBC" unicode="&#x635;" horiz-adv-x="708" arabic-form="medial" 
d="M-15 0v64h112v302l63 23v-82l86 43q58 29 120 48q42 13 80 13q56 0 99.5 -30.5t65.5 -84.5q19 -47 19 -108q0 -76 -36 -125h129v-63h-151v41q-45 -41 -111 -41h-476zM160 64h299q16 0 31 4t33.5 15.5t30 38.5t11.5 66q0 48 -15 85q-30 75 -106 75q-30 0 -59 -10
q-69 -20 -199 -95l-26 -15v-164z" />
    <glyph glyph-name="uniFEBE" unicode="&#x636;" horiz-adv-x="1104" arabic-form="final" 
d="M748 543l-51 45l51 46l51 -46zM311 -202q-126 0 -186.5 57t-60.5 136v193l63 24v-211q0 -21 7 -40.5t24.5 -40.5t57 -34t95.5 -13t95 13t56.5 34t24 40.5t6.5 40.5v369l64 23v-82l85 43q58 29 120 48q44 13 80 13q56 0 99.5 -30.5t65.5 -84.5q19 -47 19 -108
q0 -76 -36 -125h129v-63h-150v40q-47 -40 -112 -40h-297l-6 -43q-3 -18 -10 -35.5t-24.5 -41t-42 -40.5t-68 -29.5t-98.5 -12.5zM557 64h298q16 0 31 4t33.5 15.5t30 38.5t11.5 66q0 48 -15 85q-30 75 -106 75q-29 0 -58 -10q-81 -24 -200 -95l-25 -15v-164z" />
    <glyph glyph-name="uniFEBF" unicode="&#x636;" horiz-adv-x="671" arabic-form="initial" 
d="M357 543l-51 45l51 46l51 -46zM-15 0v64h112v302l64 23v-82l85 43q59 30 121 48q42 13 79 13q57 0 101.5 -30.5t64.5 -84.5q19 -51 19 -108q0 -96 -51 -142t-119 -46h-476zM161 64h298q16 0 31 4t33.5 15.5t30 38.5t11.5 66q0 48 -15 85q-30 75 -106 75q-29 0 -58 -10
q-81 -24 -200 -95l-25 -15v-164z" />
    <glyph glyph-name="uniFEC0" unicode="&#x636;" horiz-adv-x="713" arabic-form="medial" 
d="M357 543l-51 45l51 46l51 -46zM-15 0v64h112v302l63 23v-82l86 43q58 29 120 48q42 13 80 13q56 0 99.5 -30.5t65.5 -84.5q19 -47 19 -108q0 -76 -36 -125h129v-63h-151v41q-45 -41 -111 -41h-476zM160 64h299q16 0 31 4t33.5 15.5t30 38.5t11.5 66q0 48 -15 85
q-30 75 -106 75q-30 0 -59 -10q-69 -20 -199 -95l-26 -15v-164z" />
    <glyph glyph-name="uniFEC2" unicode="&#x637;" horiz-adv-x="816" arabic-form="final" 
d="M73 0l-35 63h166v556l64 23v-335l85 43q59 30 121 48q42 13 79 13q57 0 101.5 -30.5t64.5 -84.5q18 -48 18 -108q0 -76 -36 -125h130v-63h-151v40q-47 -40 -112 -40h-495zM268 63h298q15 0 30.5 4t34 16t30 39t11.5 66q0 48 -15 85q-30 75 -106 75q-25 0 -58 -10
q-96 -28 -200 -95l-25 -16v-164z" />
    <glyph glyph-name="uniFEC3" unicode="&#x637;" horiz-adv-x="725" arabic-form="initial" 
d="M-15 0v63h166v556l64 23v-335l85 43q59 30 121 48q42 13 79 13q57 0 101.5 -30.5t64.5 -84.5q19 -51 19 -108q0 -96 -51 -142t-119 -46h-530zM215 63h298q15 0 30.5 4t34 16t30 39t11.5 66q0 48 -15 85q-30 75 -106 75q-25 0 -58 -10q-96 -28 -200 -95l-25 -16v-164z" />
    <glyph glyph-name="uniFEC4" unicode="&#x637;" horiz-adv-x="764" arabic-form="medial" 
d="M-15 0v63h168v556l63 23v-335l85 43q54 27 121 48q42 13 80 13q56 0 99.5 -30.5t65.5 -84.5q19 -47 19 -108q0 -76 -36 -125h129v-63h-151v40q-46 -40 -111 -40h-532zM216 63h299q15 0 30 4t34 16t30.5 39t11.5 66q0 43 -15 85q-30 75 -106 75q-26 0 -59 -10
q-87 -26 -199 -95l-26 -16v-164z" />
    <glyph glyph-name="uniFEC6" unicode="&#x638;" horiz-adv-x="816" arabic-form="final" 
d="M492 564l-51 46l51 46l51 -46zM73 0l-35 63h166v556l64 23v-335l85 43q59 30 121 48q42 13 79 13q57 0 101.5 -30.5t64.5 -84.5q18 -48 18 -108q0 -76 -36 -125h130v-63h-151v40q-47 -40 -112 -40h-495zM268 63h298q15 0 30.5 4t34 16t30 39t11.5 66q0 48 -15 85
q-30 75 -106 75q-25 0 -58 -10q-96 -28 -200 -95l-25 -16v-164z" />
    <glyph glyph-name="uniFEC7" unicode="&#x638;" horiz-adv-x="725" arabic-form="initial" 
d="M446 564l-51 46l51 46l50 -46zM-15 0v63h166v556l64 23v-335l85 43q59 30 121 48q42 13 79 13q57 0 101.5 -30.5t64.5 -84.5q19 -51 19 -108q0 -96 -51 -142t-119 -46h-530zM215 63h298q15 0 30.5 4t34 16t30 39t11.5 66q0 48 -15 85q-30 75 -106 75q-25 0 -58 -10
q-96 -28 -200 -95l-25 -16v-164z" />
    <glyph glyph-name="uniFEC8" unicode="&#x638;" horiz-adv-x="769" arabic-form="medial" 
d="M446 564l-51 46l51 46l50 -46zM-15 0v63h168v556l63 23v-335l85 43q54 27 121 48q42 13 80 13q56 0 99.5 -30.5t65.5 -84.5q19 -47 19 -108q0 -76 -36 -125h129v-63h-151v40q-46 -40 -111 -40h-532zM216 63h299q15 0 30 4t34 16t30.5 39t11.5 66q0 43 -15 85
q-30 75 -106 75q-26 0 -59 -10q-87 -26 -199 -95l-26 -16v-164z" />
    <glyph glyph-name="uniFECA" unicode="&#x639;" horiz-adv-x="564" arabic-form="final" 
d="M323 -337q-131 0 -204.5 55t-73.5 152q0 113 132 190l60 35l-16 16q-93 94 -197 221l24 78q138 35 224 35q138 0 184 -85q16 -34 15.5 -74.5t-25 -89t-70.5 -89.5l-18 -16l23 -8q58 -20 101 -20h97v-63h-97q-97 0 -190 55l-25 -13q-31 -16 -44 -23t-39.5 -25t-38.5 -33
t-23 -38t-11 -48q0 -75 74 -118q61 -36 168 -36q17 0 55 2l-18 -56q-31 -4 -67 -4zM304 128l13 9q39 31 60.5 69.5t21 69.5t-15.5 56q-34 46 -136 46q-56 0 -156 -25q144 -166 203 -217z" />
    <glyph glyph-name="uniFECB" unicode="&#x639;" horiz-adv-x="530" arabic-form="initial" 
d="M-15 0v63h177q-2 2 -5 4.5t-5 5t-4 4.5q-37 41 -46.5 100t9 112.5t75 90t141.5 33.5q33 -1 83 -13v-64q-43 13 -81 13q-112 0 -146 -76q-16 -38 -10 -80.5t31 -72.5q48 -57 156 -57h90v-63h-465z" />
    <glyph glyph-name="uniFECC" unicode="&#x639;" horiz-adv-x="591" arabic-form="medial" 
d="M-15 0v63h112q79 0 164 26l-15 12q-76 62 -214 207l25 88q159 38 240 38q139 0 185 -82q15 -33 15.5 -72.5t-24.5 -87t-71 -86.5l-18 -15q58 -28 130 -28h92v-63h-98q-127 0 -195 50q-100 -50 -253 -50h-75zM330 127l12 9q39 30 61 67.5t21.5 67.5t-15.5 53
q-36 45 -136 45q-65 0 -174 -29l34.5 -34.5l39.5 -39.5t35.5 -35t40 -38t34.5 -29.5t36 -28.5z" />
    <glyph glyph-name="uniFECE" unicode="&#x63a;" horiz-adv-x="564" arabic-form="final" 
d="M277 584l-51 45l51 46l51 -46zM323 -337q-131 0 -204.5 55t-73.5 152q0 113 132 190l60 35l-16 16q-93 94 -197 221l24 78q138 35 224 35q138 0 184 -85q16 -34 15.5 -74.5t-25 -89t-70.5 -89.5l-18 -16l23 -8q58 -20 101 -20h97v-63h-97q-97 0 -190 55l-25 -13
q-31 -16 -44 -23t-39.5 -25t-38.5 -33t-23 -38t-11 -48q0 -75 74 -118q61 -36 168 -36q17 0 55 2l-18 -56q-31 -4 -67 -4zM304 128l13 9q39 31 60.5 69.5t21 69.5t-15.5 56q-34 46 -136 46q-56 0 -156 -25q144 -166 203 -217z" />
    <glyph glyph-name="uniFECF" unicode="&#x63a;" horiz-adv-x="530" arabic-form="initial" 
d="M311 552l-51 46l51 46l51 -46zM-15 0v63h177q-2 2 -5 4.5t-5 5t-4 4.5q-37 41 -46.5 100t9 112.5t75 90t141.5 33.5q33 -1 83 -13v-64q-43 13 -81 13q-112 0 -146 -76q-16 -38 -10 -80.5t31 -72.5q48 -57 156 -57h90v-63h-465z" />
    <glyph glyph-name="uniFED0" unicode="&#x63a;" horiz-adv-x="596" arabic-form="medial" 
d="M308 573l-51 45l51 47l50 -47zM-15 0v63h112q79 0 164 26l-15 12q-76 62 -214 207l25 88q159 38 240 38q139 0 185 -82q15 -33 15.5 -72.5t-24.5 -87t-71 -86.5l-18 -15q58 -28 130 -28h92v-63h-98q-127 0 -195 50q-100 -50 -253 -50h-75zM330 127l12 9q39 30 61 67.5
t21.5 67.5t-15.5 53q-36 45 -136 45q-65 0 -174 -29l34.5 -34.5l39.5 -39.5t35.5 -35t40 -38t34.5 -29.5t36 -28.5z" />
    <glyph glyph-name="uniFED2" unicode="&#x641;" horiz-adv-x="954" arabic-form="final" 
d="M691 571l-51 46l51 46l50 -46zM241 0q-79 0 -126 44.5t-47 119.5v108l63 23v-131q0 -49 28.5 -75t81.5 -26l262 1q-51 48 -51 131q0 84 55.5 144.5t145.5 76.5q61 11 167 2v-355h149v-63h-728zM663 63h93v293q-30 2 -55 1q-81 -3 -132 -48t-51 -114q0 -22 5.5 -42
t19.5 -42t45 -35t75 -13z" />
    <glyph glyph-name="uniFED3" unicode="&#x641;" horiz-adv-x="556" arabic-form="initial" 
d="M379 571l-51 46l51 46l51 -46zM-15 0v64h206q-50 47 -50 131t55.5 144.5t144.5 76.5q61 11 167 2v-418h-523zM352 63h93v293q-30 2 -55 1q-81 -3 -132.5 -48t-51.5 -114q0 -22 5.5 -42t19.5 -42t45 -35t76 -13z" />
    <glyph glyph-name="uniFED4" unicode="&#x641;" horiz-adv-x="642" arabic-form="medial" 
d="M379 571l-51 46l51 46l50 -46zM-15 0v64h206q-51 48 -51 131q0 84 55.5 144.5t145.5 76.5q61 11 167 2v-355h149v-63h-672zM351 63h93v293q-30 2 -55 1q-81 -3 -132 -48t-51 -114q0 -22 5.5 -42t19.5 -42t45 -35t75 -13z" />
    <glyph glyph-name="uniFED6" unicode="&#x642;" horiz-adv-x="863" arabic-form="final" 
d="M528 571l-51 46l51 46l50 -46zM659 571l-51 46l51 46l51 -46zM395 -272q-189 0 -269 94q-78 91 -52 282l65 24q-27 -182 36 -259q59 -71 220 -71q112 0 179.5 51.5t84.5 150.5h-89q-107 0 -158 57.5t-51 137.5q0 84 55.5 144.5t145.5 76.5q61 11 167 2l-1 -348v-7h150
v-63h-155q-19 -129 -104.5 -200.5t-223.5 -71.5zM572 63h93v293q-30 2 -55 1q-81 -3 -132 -48t-51 -114q0 -22 5.5 -42t19.5 -42t45 -35t75 -13z" />
    <glyph glyph-name="uniFED7" unicode="&#x642;" horiz-adv-x="556" arabic-form="initial" 
d="M307 571l-51 46l51 46l51 -46zM439 571l-51 46l51 46l50 -46zM-15 0v63h207q-51 50 -51 132q0 84 55.5 144.5t145.5 76.5q61 11 166 2v-418h-523zM352 63h93v293q-30 2 -55 1q-81 -3 -132.5 -48t-51.5 -114q0 -22 5.5 -42t19.5 -42t45 -35t76 -13z" />
    <glyph glyph-name="uniFED8" unicode="&#x642;" horiz-adv-x="642" arabic-form="medial" 
d="M307 571l-51 46l51 46l50 -46zM438 571l-51 46l51 46l51 -46zM-15 0v63h206q-51 50 -51 132q0 84 55.5 144.5t145.5 76.5q61 11 167 2v-355h149v-63h-672zM351 63h93v293q-30 2 -55 1q-81 -3 -132 -48t-51 -114q0 -22 5.5 -42t19.5 -42t45 -35t75 -13z" />
    <glyph glyph-name="uniFEDA" unicode="&#x643;" horiz-adv-x="863" arabic-form="final" 
d="M339 0q-153 0 -223 99q-67 95 -33 244l68 26q-12 -35 -16.5 -73.5t2.5 -81t27.5 -75.5t65.5 -54.5t109 -21.5h255q47 0 65.5 18t18.5 63v475l63 23v-498q0 -50 -13 -80l150 -1v-63h-161v44q-31 -44 -119 -44h-259zM318 325v43h55q-23 20 -23 54q0 37 24.5 59t68.5 22h58
v-43h-47q-57 0 -57 -46q0 -9 2.5 -17.5t16.5 -18.5t38 -10h47v-43h-183z" />
    <glyph glyph-name="uniFEDB" unicode="&#x643;" horiz-adv-x="515" arabic-form="initial" 
d="M-15 0v63h390v15q0 104 -62.5 186t-177.5 134v80l301 212v-83l-246 -162l23 -11q106 -51 166 -145.5t60 -210.5q0 -35 -5 -78h-449z" />
    <glyph glyph-name="uniFEDC" unicode="&#x643;" horiz-adv-x="578" arabic-form="medial" 
d="M-15 0v63h391v15q0 104 -62.5 186t-177.5 134v80l301 212v-83l-246 -162l22 -11q106 -53 166 -147t60 -209v-15h154v-63h-148l-15 36q-22 -36 -67 -36h-378z" />
    <glyph glyph-name="uniFEDE" unicode="&#x644;" horiz-adv-x="712" arabic-form="final" 
d="M321 -159q-135 0 -202 82q-80 96 -43 298l64 23q-34 -204 29 -278q51 -61 152 -61q57 0 96.5 18t56.5 47t23 52.5t6 47.5v549l63 23v-579h161v-63h-167l-13 -32q-52 -127 -226 -127z" />
    <glyph glyph-name="uniFEDF" unicode="&#x644;" horiz-adv-x="273" arabic-form="initial" 
d="M-15 0v63h79q40 0 62 21.5t22 59.5v475l63 23v-511q0 -70 -32.5 -100.5t-106.5 -30.5h-87z" />
    <glyph glyph-name="uniFEE0" unicode="&#x644;" horiz-adv-x="340" arabic-form="medial" 
d="M-15 0v63h80q83 0 83 79v477l64 23v-511q0 -25 -5 -50l-5 -17h153v-64h-163v44l-9 -9q-32 -35 -109 -35h-89z" />
    <glyph glyph-name="uniFEE2" unicode="&#x645;" horiz-adv-x="737" arabic-form="final" 
d="M40 -308v235q0 67 33 102t88 35h125q-50 49 -50 131q0 84 55.5 144.5t144.5 76.5q62 11 167 2v-355h149v-63h-574q-27 0 -43 -6.5t-22.5 -22.5t-7.5 -27.5t-1 -36.5v-192zM447 63h93v293q-30 2 -55 1q-81 -3 -132.5 -48t-51.5 -114q0 -22 5.5 -42t19.5 -42t45 -35t76 -13
z" />
    <glyph glyph-name="uniFEE3" unicode="&#x645;" horiz-adv-x="590" arabic-form="initial" 
d="M-15 0v63h206q-50 49 -50 132q0 84 55.5 144.5t144.5 76.5q61 11 167 2v-418h-523zM352 63h92v293q-30 2 -54 1q-81 -3 -132.5 -48t-51.5 -114q0 -22 5.5 -42t19.5 -42t45 -35t76 -13z" />
    <glyph glyph-name="uniFEE4" unicode="&#x645;" horiz-adv-x="642" arabic-form="medial" 
d="M-15 0v63h206q-51 50 -51 132q0 84 55.5 144.5t145.5 76.5q61 11 167 2v-355h149v-63h-672zM351 63h93v293q-30 2 -55 1q-81 -3 -132 -48t-51 -114q0 -22 5.5 -42t19.5 -42t45 -35t75 -13z" />
    <glyph glyph-name="uniFEE6" unicode="&#x646;" horiz-adv-x="702" arabic-form="final" 
d="M313 433l-50 45l50 46l51 -46zM314 -159q-134 0 -201 82q-80 99 -44 298l64 23q-33 -202 29 -278q51 -61 152 -61q27 0 51 4t49 16t42.5 31.5t28.5 51.5t11 74v288l64 23v-311q0 -12 -1 -18h158v-64h-168q-21 -76 -82.5 -117.5t-152.5 -41.5z" />
    <glyph glyph-name="uniFEE7" unicode="&#x646;" horiz-adv-x="290" arabic-form="initial" 
d="M183 558l-51 46l51 46l50 -46zM-15 0v63h70q82 0 82 79v228l64 23v-262q0 -70 -32.5 -100.5t-105.5 -30.5h-78z" />
    <glyph glyph-name="uniFEE8" unicode="&#x646;" horiz-adv-x="325" arabic-form="medial" 
d="M179 558l-51 46l51 46l50 -46zM-15 0v63h66q40 0 61.5 20.5t21.5 58.5v228l63 23v-262q0 -31 -5 -50l-4 -17h152v-64h-163v44l-9 -9q-31 -35 -109 -35h-74z" />
    <glyph glyph-name="uniFEEA" unicode="&#x647;" horiz-adv-x="559" arabic-form="final" 
d="M371 0v355l-13 1h-25q-88 0 -142 -43q-28 -22 -43.5 -57t-13.5 -69q1 -15 3 -26t12 -31.5t26.5 -34t50.5 -24t80 -10.5h36l12 1l-38 -61h-36q-83 0 -146 45.5t-68 135.5q-6 117 86 185q78 58 206 58q44 0 77 -4v-358h139v-63h-203z" />
    <glyph glyph-name="uniFEEB" unicode="&#x647;" horiz-adv-x="746" arabic-form="initial" 
d="M430 -8q-83 0 -161 33q-87 -25 -225 -25h-59v63h112q47 0 56 1l40 4l-25 21q-73 61 -66 152q5 61 51.5 107t128.5 46q68 0 117 -32q51 -33 66.5 -94t-21.5 -125q-29 -43 -90 -80l10 -2q33 -6 66 -6q84 0 130.5 37.5t46.5 105.5q0 70 -66 133q-85 81 -235 113v67
q35 -8 74 -20t101.5 -43.5t103.5 -70.5q85 -80 85 -179q0 -95 -64.5 -150.5t-175.5 -55.5zM281 91l8 4q51 27 72 46q36 34 40.5 77t-28 74.5t-95.5 31.5q-56 0 -84.5 -31.5t-28.5 -66.5q0 -83 107 -131z" />
    <glyph glyph-name="uniFEEC" unicode="&#x647;" horiz-adv-x="782" arabic-form="medial" 
d="M430 -8q-83 0 -161 33q-87 -25 -225 -25h-59v63h112q47 0 56 1l40 4l-25 21q-73 61 -66 152q5 61 51.5 107t128.5 46q68 0 117 -32q51 -33 66.5 -94t-21.5 -125q-29 -43 -90 -80l10 -2q33 -6 66 -6q84 0 130.5 37.5t46.5 105.5q0 70 -66 133q-85 81 -235 113v67
q35 -8 74 -20t101.5 -43.5t103.5 -70.5q85 -80 85 -179q0 -64 -31 -112l11 -5q39 -18 82 -18h65v-63h-63q-78 0 -139 39q-64 -47 -165 -47zM281 91l8 4q51 27 72 46q36 34 40.5 77t-28 74.5t-95.5 31.5q-56 0 -84.5 -31.5t-28.5 -66.5q0 -83 107 -131z" />
    <glyph glyph-name="uniFEEE" unicode="&#x648;" horiz-adv-x="509" arabic-form="final" 
d="M248 -226l-55 31q119 79 136 178l3 17h-92q-107 0 -158 57.5t-51 137.5q0 85 55.5 145t145.5 76q61 11 167 2v-311q0 -19 -1 -29v-15h126v-63h-131l-2 -12q-12 -72 -45 -121.5t-98 -92.5zM242 63h93v293q-30 2 -55 1q-81 -3 -132 -47.5t-51 -114.5q0 -22 5.5 -42
t19.5 -42t45 -35t75 -13z" />
    <glyph glyph-name="uniFEF0" unicode="&#x649;" horiz-adv-x="882" arabic-form="final" 
d="M334 -149q-134 0 -206 80q-67 73 -56 178q6 59 21 87l74 30q-32 -60 -32 -135q0 -84 58.5 -131t143.5 -47h126v302q0 83 43 124.5t134 45.5h7q6 0 18 0.5t18 0.5q52 0 109 -6v-244q0 -72 73 -72h32v-64h-48q-64 0 -92.5 34.5t-28.5 86.5v198q-55 2 -80 1l-7 -1
q-68 -2 -90.5 -26.5t-22.5 -76.5v-365h-194z" />
    <glyph glyph-name="uniFEF2" unicode="&#x64a;" horiz-adv-x="882" arabic-form="final" 
d="M334 -149q-134 0 -206 80q-67 73 -56 178q6 59 21 87l74 30q-32 -60 -32 -135q0 -84 58.5 -131t143.5 -47h126v302q0 83 43 124.5t134 45.5h7q6 0 18 0.5t18 0.5q52 0 109 -6v-244q0 -72 73 -72h32v-64h-48q-64 0 -92.5 34.5t-28.5 86.5v198q-55 2 -80 1l-7 -1
q-68 -2 -90.5 -26.5t-22.5 -76.5v-365h-194zM331 -386l-51 46l51 46l51 -46zM463 -386l-51 46l51 46l50 -46z" />
    <glyph glyph-name="uniFEF3" unicode="&#x64a;" horiz-adv-x="278" arabic-form="initial" 
d="M-10 0v63h70q82 0 82 79v228l64 23v-262q0 -70 -32.5 -100.5t-105.5 -30.5h-78zM19 -231l-50 46l50 46l51 -46zM151 -231l-51 46l51 46l51 -46z" />
    <glyph glyph-name="uniFEF4" unicode="&#x64a;" horiz-adv-x="330" arabic-form="medial" 
d="M-10 0v63h66q40 0 61.5 20.5t21.5 58.5v228l63 23v-262q0 -31 -5 -50l-4 -17h152v-64h-163v44l-9 -9q-31 -35 -109 -35h-74zM57 -231l-51 46l51 46l51 -46zM188 -231l-50 46l50 46l51 -46z" />
    <glyph glyph-name=".notdef" horiz-adv-x="400" 
 />
    <glyph glyph-name=".null" 
 />
    <glyph glyph-name="nonmarkingreturn" horiz-adv-x="333" 
 />
    <glyph glyph-name="space" unicode=" " horiz-adv-x="140" 
 />
    <glyph glyph-name="exclam" unicode="!" horiz-adv-x="222" 
d="M97 200l-28 331v185h87v-186l-28 -330h-31zM115 3l-69 61l69 63l69 -63z" />
    <glyph glyph-name="quotedbl" unicode="&#x22;" horiz-adv-x="352" 
d="M41 481l13 274h88l-52 -274h-49zM212 481l13 274h88l-52 -274h-49z" />
    <glyph glyph-name="numbersign" unicode="#" horiz-adv-x="599" 
d="M121 0l33 173h-111l11 55h111l37 190h-112l11 55h112l30 154h51l-31 -154h131l31 154h50l-30 -154h112l-11 -55h-112l-37 -190h113l-11 -55h-113l-34 -173h-50l33 173h-131l-33 -173h-50zM216 228h131l37 190h-131z" />
    <glyph glyph-name="dollar" unicode="$" horiz-adv-x="458" 
d="M157 -95v87q-61 4 -96 16l-2 48l11 5q38 -10 87 -14v254h-1q-64 16 -94.5 58t-30.5 95q0 58 32 98.5t94 56.5v94h43v-86q26 2 44 2q12 0 17 -1v85h43v-87q21 -2 41 -5.5t29 -6.5l10 -2l-4 -47l-9 -6q-28 8 -67 12v-242q59 -20 92 -61t33 -95q0 -138 -125 -165v-93h-43v86
q-17 -2 -40 -2l-21 1v-85h-43zM261 332v232h-21q-16 0 -40 -2v-214zM157 362v190q-64 -22 -64 -94q0 -39 15 -61t49 -35zM200 43h20q17 0 41 2v227l-61 17v-246zM304 55q64 22 64 107q0 67 -64 95v-202z" />
    <glyph glyph-name="percent" unicode="%" horiz-adv-x="675" 
d="M119 -11l385 638h56l-385 -638h-56zM158 293q-48 0 -80.5 35.5t-32.5 106.5v39q0 72 32.5 108t80.5 36h7q48 0 80.5 -36t32.5 -108v-39q0 -71 -32.5 -106.5t-80.5 -35.5h-7zM162 335q66 0 66 93v55q0 39 -15.5 65.5t-50.5 26.5q-67 0 -67 -92v-55q0 -93 67 -93zM509 -11
q-48 0 -80.5 35.5t-32.5 106.5v39q0 72 32.5 108t80.5 36h8q48 0 80.5 -36t32.5 -108v-39q0 -71 -32.5 -106.5t-80.5 -35.5h-8zM513 31q67 0 67 93v55q0 39 -16 65.5t-51 26.5t-50.5 -26.5t-15.5 -65.5v-55q0 -93 66 -93z" />
    <glyph glyph-name="ampersand" unicode="&#x26;" horiz-adv-x="555" 
d="M235 -11q-84 0 -134 42.5t-50 111.5q0 56 29.5 93t96.5 83v2l-16 18q-41 45 -60 81t-19 79q0 63 42.5 101t116.5 38q72 0 115.5 -38.5t43.5 -103.5q0 -51 -27.5 -90.5t-103.5 -93.5v-4l121 -136l9 -14h2q11 37 11 95v51h62v-31q0 -103 -31 -161l100 -112h-81l-58 66
q-61 -77 -169 -77zM231 350l16 12q54 41 72.5 69t18.5 65q0 44 -28 65.5t-69 21.5q-42 0 -70 -21t-28 -63q0 -32 14 -57t54 -70zM238 44q87 0 131 61q-106 118 -157 176l-11 -7q-49 -36 -68.5 -64t-19.5 -61q0 -51 34 -78t91 -27z" />
    <glyph glyph-name="quotesingle" unicode="'" horiz-adv-x="171" 
d="M40 472l12 246h79l-47 -246h-44z" />
    <glyph glyph-name="parenleft" unicode="(" horiz-adv-x="244" 
d="M151 -95q-4 7 -10.5 19t-24 51.5t-30.5 80.5t-23.5 101.5t-10.5 118.5q0 66 12 131t29.5 111t35 83t29.5 55l12 19h50q-5 -7 -12 -20t-26.5 -54.5t-34 -85.5t-26.5 -109.5t-12 -129.5q0 -92 23 -184.5t46 -139.5l23 -47h-50z" />
    <glyph glyph-name="parenright" unicode=")" horiz-adv-x="244" 
d="M43 -95q10 18 25.5 51t41 130.5t25.5 189.5q0 64 -11.5 128.5t-27.5 111t-32.5 84t-27.5 56.5l-12 19h50q5 -7 13 -19.5t28 -53.5t35.5 -84.5t28.5 -109.5t13 -132q0 -92 -25 -185t-49 -139l-25 -47h-50z" />
    <glyph glyph-name="asterisk" unicode="*" horiz-adv-x="450" 
d="M348 301q-14 -8 -18.5 -6t-15.5 16l-14 20l-69 119h-12l-69 -119l-14 -20q-10 -14 -15.5 -15.5t-18.5 6.5l-12 9q-12 10 -12 15t10 19l15 20l93 102l-4 12l-136 28l-24 8q-16 5 -19 10t1 20l5 14q5 15 11 16.5t21 -4.5l23 -8l127 -57l10 7q-11 93 -15 139v24q0 17 4 22
t19 5h14q8 0 12.5 -1t6.5 -5t2.5 -7.5t0.5 -13.5v-24l-16 -139l10 -7q85 39 127 57l23 8q15 6 22 3.5t11 -16.5l4 -14q4 -16 1 -19.5t-19 -9.5l-24 -8l-136 -28l-4 -12q63 -69 94 -102l14 -20q10 -12 9.5 -19t-12.5 -16z" />
    <glyph glyph-name="plus" unicode="+" horiz-adv-x="475" 
d="M212 76v183h-183v51h183v183h50v-183h184v-51h-184v-183h-50z" />
    <glyph glyph-name="comma" unicode="," horiz-adv-x="188" 
d="M53 -111v11l22 84v7q-24 11 -24 45q0 22 12 34t31 12t31 -13.5t12 -38.5q0 -21 -19 -62l-37 -79h-28z" />
    <glyph glyph-name="hyphen" unicode="-" horiz-adv-x="317" 
d="M40 258v51h237v-51h-237z" />
    <glyph glyph-name="period" unicode="." horiz-adv-x="202" 
d="M101 0l-71 64l71 64l71 -64z" />
    <glyph glyph-name="slash" unicode="/" horiz-adv-x="447" 
d="M19 -95l355 798h54l-355 -798h-54z" />
    <glyph glyph-name="zero" unicode="0" horiz-adv-x="513" 
d="M255 -11q-93 0 -148 73t-55 213v77q0 139 55 212.5t148 73.5h3q93 0 148 -73t55 -213v-77q0 -140 -54.5 -213t-148.5 -73h-3zM257 44q67 0 104.5 55t37.5 169v90q0 114 -37.5 169.5t-104.5 55.5q-143 0 -143 -225v-90q0 -224 143 -224z" />
    <glyph glyph-name="one" unicode="1" horiz-adv-x="277" 
d="M133 0v546l-2 1l-79 -53h-33v36l138 97h38v-627h-62z" />
    <glyph glyph-name="two" unicode="2" horiz-adv-x="454" 
d="M41 0v67q0 51 23.5 91t78.5 76l95 61q60 40 86 73.5t26 83.5v4q0 56 -34.5 91.5t-108.5 35.5q-29 0 -64 -8.5t-56 -16.5l-21 -9l-9 3q-3 18 -6 46q73 40 166 40q95 0 144.5 -49.5t49.5 -130.5v-6q0 -40 -10 -71.5t-33.5 -57t-44.5 -41.5t-59 -40l-85 -55q-44 -28 -60 -54
t-16 -61v-17h299v-55h-361z" />
    <glyph glyph-name="three" unicode="3" horiz-adv-x="431" 
d="M181 -11q-38 0 -75 6t-55 12t-18 7l4 45l11 5q63 -20 125 -20q76 0 115 38t39 95v4q0 55 -38.5 86.5t-107.5 31.5h-87v51h88q54 0 90 33t36 84v5q0 49 -33 80t-96 31q-26 0 -56 -6.5t-47 -12.5l-17 -7l-11 4l-6 42q60 35 146 35q89 0 135.5 -47t46.5 -113v-6
q0 -48 -25 -84.5t-63 -54.5v-2q44 -15 75.5 -53t31.5 -97v-7q0 -81 -55.5 -133t-152.5 -52z" />
    <glyph glyph-name="four" unicode="4" horiz-adv-x="458" 
d="M306 0v121h-280v55l196 451h66l-196 -451h214v204h62v-204h80v-55h-80v-121h-62z" />
    <glyph glyph-name="five" unicode="5" horiz-adv-x="448" 
d="M212 -11q-39 0 -77.5 7.5t-56.5 15.5l-19 8l5 45l10 5q67 -26 128 -26q134 0 134 148v22q0 126 -120 126q-28 0 -55.5 -9.5t-41.5 -18.5l-14 -10l-48 12l18 313h285v-55h-227l-12 -205h3q53 28 109 28q77 0 121 -45.5t44 -132.5v-25q0 -96 -46 -149.5t-140 -53.5z" />
    <glyph glyph-name="six" unicode="6" horiz-adv-x="494" 
d="M254 -11q-98 0 -150 68t-52 204v62q0 315 235 315q27 0 54 -5t41 -9l13 -5l-5 -47l-8 -5q-45 16 -92 16q-86 0 -131 -56t-45 -182v-2l2 -1q66 55 157 55q83 0 126 -49.5t43 -128.5v-27q0 -91 -48.5 -147t-139.5 -56zM254 44q59 0 92.5 36.5t33.5 105.5v32q0 60 -33 92
t-90 32q-73 0 -143 -58v-36q0 -204 140 -204z" />
    <glyph glyph-name="seven" unicode="7" horiz-adv-x="413" 
d="M62 0l267 566v6h-303v55h370v-55l-266 -572h-68z" />
    <glyph glyph-name="eight" unicode="8" horiz-adv-x="485" 
d="M243 -11q-87 0 -142 42.5t-55 122.5q0 56 30 97t93 75v4q-32 17 -52.5 32t-39 48t-18.5 75q0 70 50.5 111.5t133.5 41.5q84 0 134 -40.5t50 -112.5q0 -54 -27 -91.5t-86 -67.5v-6q61 -31 93.5 -69.5t32.5 -96.5q0 -80 -55 -122.5t-142 -42.5zM257 350q56 31 83.5 60.5
t27.5 74.5t-32.5 71.5t-92.5 26.5t-92.5 -26.5t-32.5 -71.5q0 -38 22.5 -63.5t81.5 -54.5zM243 44q63 0 99 29.5t36 80.5q0 39 -22 66t-90 60l-36 18q-65 -30 -94 -64t-29 -80q0 -50 36.5 -80t99.5 -30z" />
    <glyph glyph-name="nine" unicode="9" horiz-adv-x="494" 
d="M206 -11q-26 0 -52.5 4.5t-40.5 8.5l-14 5l5 48l8 5q48 -16 92 -16q88 0 131.5 55t43.5 184q-71 -53 -155 -53t-128 51t-44 131v22q0 93 52.5 148.5t142.5 55.5q95 0 145 -67.5t50 -198.5v-68q0 -163 -59.5 -239t-176.5 -76zM236 285q81 0 144 49v44q0 205 -133 205
q-58 0 -95.5 -39t-37.5 -107v-24q0 -63 33 -95.5t89 -32.5z" />
    <glyph glyph-name="colon" unicode=":" horiz-adv-x="212" 
d="M106 279l-71 64l71 65l71 -65zM106 0l-71 64l71 64l71 -64z" />
    <glyph glyph-name="semicolon" unicode=";" horiz-adv-x="188" 
d="M94 370q-19 0 -31 12t-12 33t12 33.5t31 12.5t31 -12.5t12 -33.5t-12.5 -33t-30.5 -12zM53 -111v11l22 84v7q-24 11 -24 45q0 22 12 34t31 12t31 -13.5t12 -38.5q0 -21 -19 -62l-37 -79h-28z" />
    <glyph glyph-name="less" unicode="&#x3c;" horiz-adv-x="475" 
d="M386 46l-316 208v41l316 210h19v-47l-273 -183l273 -182v-47h-19z" />
    <glyph glyph-name="equal" unicode="=" horiz-adv-x="475" 
d="M48 328v50h380v-50h-380zM48 173v50h380v-50h-380z" />
    <glyph glyph-name="greater" unicode="&#x3e;" horiz-adv-x="475" 
d="M70 46v47l273 183l-273 182v47h19l316 -208v-41l-316 -210h-19z" />
    <glyph glyph-name="question" unicode="?" horiz-adv-x="391" 
d="M127 172v51q0 51 13 74.5t70 65.5q47 35 63.5 59t16.5 61v4q0 43 -32 69.5t-91 26.5q-27 0 -52 -4t-37 -8l-11 -4l-10 5q-4 24 -6 46q53 20 121 20q88 0 134 -41.5t46 -108.5v-5q0 -47 -23 -82t-75 -74q-49 -37 -61.5 -54t-12.5 -50v-51h-53zM154 -10q-19 0 -31 12.5
t-12 33.5t12 33.5t31 12.5t31 -12.5t12 -33.5t-12.5 -33.5t-30.5 -12.5z" />
    <glyph glyph-name="at" unicode="@" horiz-adv-x="792" 
d="M387 -114q-161 0 -254 94t-93 260v61q0 168 95.5 271.5t253.5 103.5h20q160 0 251.5 -77.5t91.5 -216.5v-34q0 -120 -51.5 -201.5t-130.5 -81.5q-52 0 -73.5 29t-21.5 66l4 49l-6 1q-24 -68 -62.5 -106.5t-85.5 -38.5q-50 0 -81 39.5t-31 113.5q0 66 18.5 128.5t64 110.5
t109.5 48q59 0 125 -43q2 4 9 15t12 17h35l-58 -287q-20 -99 46 -99q53 0 94.5 66.5t41.5 173.5v34q0 118 -81 185t-220 67h-20q-137 0 -221.5 -92.5t-84.5 -240.5v-61q0 -146 82 -228.5t222 -82.5h10q105 0 227 24q4 -26 5 -35q-112 -32 -232 -32h-10zM330 117
q80 0 167 218l18 87q-66 31 -106 31q-48 0 -81.5 -40.5t-46.5 -91t-13 -101.5q0 -103 62 -103z" />
    <glyph glyph-name="A" unicode="A" horiz-adv-x="477" 
d="M12 0l193 627h67l193 -627h-65l-52 173h-220l-51 -173h-65zM145 228h187l-80 266l-12 53h-3q-6 -34 -12 -53z" />
    <glyph glyph-name="B" unicode="B" horiz-adv-x="464" 
d="M68 0v627h154q188 0 188 -167v-8q0 -48 -14.5 -79t-53.5 -50v-4q87 -29 87 -144v-8q0 -70 -38 -118.5t-121 -48.5h-202zM130 342h131q42 0 65 25t23 70v21q0 117 -131 117h-88v-233zM130 52h130q55 0 81.5 31.5t26.5 78.5v24q0 107 -107 107h-131v-241z" />
    <glyph glyph-name="C" unicode="C" horiz-adv-x="411" 
d="M279 -11q-49 0 -87 13t-71.5 44t-52 91.5t-18.5 147.5v33q0 320 225 320q24 0 47.5 -3t35.5 -7l11 -3l-6 -45l-9 -6q-37 9 -77 9q-164 0 -164 -267v-20q0 -132 40.5 -192t129.5 -60q20 0 42 3.5t34 6.5l12 4l9 -4q4 -25 6 -46q-44 -19 -107 -19z" />
    <glyph glyph-name="D" unicode="D" horiz-adv-x="508" 
d="M68 0v627h173q101 0 159 -64t58 -190v-153q0 -106 -48.5 -163t-139.5 -57h-202zM130 55h130q136 0 136 178v138q0 201 -162 201h-104v-517z" />
    <glyph glyph-name="E" unicode="E" horiz-adv-x="381" 
d="M68 0v627h285v-55h-223v-220h195v-51h-195v-246h233v-55h-295z" />
    <glyph glyph-name="F" unicode="F" horiz-adv-x="371" 
d="M68 0v627h285v-55h-223v-223h195v-53h-195v-296h-62z" />
    <glyph glyph-name="G" unicode="G" horiz-adv-x="484" 
d="M254 -11q-204 0 -204 301v33q0 170 61.5 242.5t178.5 72.5q28 0 59.5 -5t49.5 -9l18 -5l-5 -46l-8 -5q-62 15 -109 15q-95 0 -138.5 -59t-43.5 -207v-28q0 -135 40 -190t110 -55q13 0 26 2.5t23.5 6t19.5 8t16.5 9.5t12.5 8.5t9 6.5l3 3v254h62v-342h-36l-10 41
q-56 -52 -135 -52z" />
    <glyph glyph-name="H" unicode="H" horiz-adv-x="536" 
d="M68 0v627h62v-282h276v282h61v-627h-61v290h-276v-290h-62z" />
    <glyph glyph-name="I" unicode="I" horiz-adv-x="199" 
d="M68 0v627h62v-627h-62z" />
    <glyph glyph-name="J" unicode="J" horiz-adv-x="316" 
d="M105 -11q-20 0 -40.5 2.5t-30.5 4.5l-10 3l4 46l9 5q26 -6 59 -6q50 0 70 32.5t20 113.5v437h62v-446q0 -99 -33.5 -145.5t-109.5 -46.5z" />
    <glyph glyph-name="K" unicode="K" horiz-adv-x="445" 
d="M68 0v627h62v-283h58l173 283h69l-189 -310q15 -26 97 -158t97 -159h-71l-177 289h-57v-289h-62z" />
    <glyph glyph-name="L" unicode="L" horiz-adv-x="355" 
d="M68 0v627h62v-572h214v-55h-276z" />
    <glyph glyph-name="M" unicode="M" horiz-adv-x="678" 
d="M68 0v627h74l169 -426l25 -73h6q12 40 26 73l169 426h73v-627h-62v415l3 91l-6 1q-12 -41 -20 -60l-170 -428h-32l-170 428l-20 60l-6 -1q3 -63 3 -91v-415h-62z" />
    <glyph glyph-name="N" unicode="N" horiz-adv-x="571" 
d="M68 0v627h63l291 -481l19 -42l5 1l-5 70v452h62v-627h-63l-289 478l-21 45l-5 -1l5 -70v-452h-62z" />
    <glyph glyph-name="O" unicode="O" horiz-adv-x="500" 
d="M245 -11q-195 0 -195 305v39q0 305 195 305h9q195 0 195 -305v-39q0 -305 -195 -305h-9zM247 44h6q71 0 102.5 59.5t31.5 187.5v44q0 128 -32 188t-102 60h-6q-71 0 -102.5 -60t-31.5 -188v-44q0 -127 32 -187t102 -60z" />
    <glyph glyph-name="P" unicode="P" horiz-adv-x="445" 
d="M68 0v627h153q192 0 192 -201v-30q0 -85 -47 -128t-130 -43h-106v-225h-62zM130 276h95q127 0 127 120v28q0 76 -33 112t-103 36h-86v-296z" />
    <glyph glyph-name="Q" unicode="Q" horiz-adv-x="500" 
d="M373 -95l-51 95q-29 -11 -68 -11h-9q-195 0 -195 305v39q0 305 195 305h9q195 0 195 -305v-39q0 -196 -79 -266l53 -96zM247 44h6q71 0 102.5 59.5t31.5 187.5v44q0 128 -32 188t-102 60h-6q-71 0 -102.5 -60t-31.5 -188v-44q0 -127 32 -187t102 -60z" />
    <glyph glyph-name="R" unicode="R" horiz-adv-x="474" 
d="M68 0v627h153q208 0 208 -183v-12q0 -121 -111 -155v-1q13 -10 22 -34l103 -242h-67l-103 241q-11 25 -42 25h-101v-266h-62zM130 315h102q136 0 136 115v10q0 72 -37 102t-114 30h-87v-257z" />
    <glyph glyph-name="S" unicode="S" horiz-adv-x="433" 
d="M190 -11q-62 0 -130 17l-2 50l10 5q61 -17 122 -17q142 0 142 132q0 80 -98 111l-67 21q-127 40 -127 158q0 79 48 125.5t146 46.5q26 0 54.5 -3t43.5 -7l15 -3l-4 -47l-9 -6q-46 11 -99 11q-133 0 -133 -114q0 -43 20.5 -69t67.5 -40l65 -20q138 -42 138 -164
q0 -187 -203 -187z" />
    <glyph glyph-name="T" unicode="T" horiz-adv-x="377" 
d="M158 0v572h-145v55h351v-55h-145v-572h-61z" />
    <glyph glyph-name="U" unicode="U" horiz-adv-x="513" 
d="M250 -11q-188 0 -188 233v405h62v-412q0 -92 33.5 -131.5t99.5 -39.5q64 0 98.5 39.5t34.5 131.5v412h61v-405q0 -233 -189 -233h-12z" />
    <glyph glyph-name="V" unicode="V" horiz-adv-x="477" 
d="M196 0l-184 627h65l145 -499l14 -60h5q7 37 14 60l145 499h65l-184 -627h-85z" />
    <glyph glyph-name="W" unicode="W" horiz-adv-x="667" 
d="M151 0l-139 627h64l99 -442l11 -83h8q4 41 13 79l104 427h45l104 -427l13 -79h8l11 83l99 442h64l-139 -627h-69l-105 432l-6 43h-5q-3 -30 -6 -43l-105 -432h-69z" />
    <glyph glyph-name="X" unicode="X" horiz-adv-x="447" 
d="M12 0l165 321l-156 306h67l116 -223q5 -9 9 -21t6 -20l2 -8h4q7 29 17 49l116 223h68l-156 -306l164 -321h-67l-126 241l-16 40h-4q-8 -24 -16 -40l-125 -241h-68z" />
    <glyph glyph-name="Y" unicode="Y" horiz-adv-x="467" 
d="M203 0v216l-191 411h68l126 -272l26 -72h5q11 42 25 72l126 272h67l-190 -411v-216h-62z" />
    <glyph glyph-name="Z" unicode="Z" horiz-adv-x="401" 
d="M34 0v36l243 498l20 35v3h-247v55h317v-37l-243 -498l-20 -33v-4h263v-55h-333z" />
    <glyph glyph-name="bracketleft" unicode="[" horiz-adv-x="253" 
d="M72 -114v789h157v-43h-100v-703h100v-43h-157z" />
    <glyph glyph-name="backslash" unicode="\" horiz-adv-x="447" 
d="M374 -95l-355 798h54l355 -798h-54z" />
    <glyph glyph-name="bracketright" unicode="]" horiz-adv-x="253" 
d="M24 -114v43h100v703h-100v43h157v-789h-157z" />
    <glyph glyph-name="asciicircum" unicode="^" horiz-adv-x="463" 
d="M35 266l176 352h41l176 -352h-57l-138 275h-4l-138 -275h-56z" />
    <glyph glyph-name="underscore" unicode="_" horiz-adv-x="475" 
d="M0 -100v33h475v-33h-475z" />
    <glyph glyph-name="a" unicode="a" horiz-adv-x="486" 
d="M184 -11q-65 0 -106 42.5t-41 103.5v5q0 134 152 153l149 18v4q0 71 -28.5 103t-106.5 32q-29 0 -60 -5t-47 -9l-16 -5l-8 7q0 17 9 48q55 19 127 19q104 0 148 -46t44 -144v-201q0 -36 11 -51.5t36 -20.5l16 -3l3 -7l-9 -37q-12 -6 -30 -6q-37 0 -59.5 24t-26.5 66h-3
q-54 -90 -154 -90zM194 44q79 0 144 96v118l-133 -16q-57 -6 -81.5 -31t-24.5 -67v-4q0 -43 26 -69.5t69 -26.5z" />
    <glyph glyph-name="b" unicode="b" horiz-adv-x="480" 
d="M270 -11q-87 0 -148 66h-2q-11 -34 -16 -55h-38v665h61v-213h1q75 53 144 53q164 0 164 -238v-44q0 -118 -46 -176t-120 -58zM253 44q121 0 121 181v34q0 107 -29 149t-88 42q-61 0 -130 -46v-300q60 -60 126 -60z" />
    <glyph glyph-name="c" unicode="c" horiz-adv-x="371" 
d="M240 -11q-99 0 -147.5 57t-48.5 187v14q0 138 50 198t152 60q24 0 47 -3.5t35 -7.5l11 -3l-6 -46l-7 -5q-41 10 -80 10q-70 0 -105.5 -43t-35.5 -161v-13q0 -59 11.5 -98.5t33 -58t43 -25.5t51.5 -7q19 0 41.5 4t35.5 8l13 5l8 -5q5 -23 7 -46q-47 -21 -109 -21z" />
    <glyph glyph-name="d" unicode="d" horiz-adv-x="501" 
d="M203 -11q-72 0 -115.5 56t-43.5 175v47q0 123 49 180.5t133 57.5q67 0 126 -46v206h62v-551q0 -36 11 -51.5t37 -20.5l15 -3l4 -7l-10 -37q-12 -6 -30 -6q-37 0 -59 23.5t-26 62.5h-4q-54 -86 -149 -86zM210 44q75 0 142 96v266q-4 4 -16 12.5t-41.5 20t-59.5 11.5
q-130 0 -130 -191v-35q0 -180 105 -180z" />
    <glyph glyph-name="e" unicode="e" horiz-adv-x="448" 
d="M246 -11q-202 0 -202 244v33q0 111 52 175t136 64h6q78 0 122.5 -49t44.5 -145v-16l-6 -72h-294q0 -97 39 -138t112 -41q17 0 34 2.5t31 6t23.5 7t18 7t9.5 3.5l10 -4l1 -8q1 -8 2.5 -18.5t1.5 -16.5q-3 -3 -18 -10t-49.5 -15.5t-73.5 -8.5zM105 273h241v42
q0 135 -108 135h-7q-54 0 -90 -41t-36 -124v-12z" />
    <glyph glyph-name="f" unicode="f" horiz-adv-x="309" 
d="M89 0v439h-71v55h71v49q0 85 31.5 122.5t108.5 37.5q16 0 34 -2t29 -4l10 -2l-4 -46l-8 -6q-31 5 -55 5q-50 0 -67 -22.5t-17 -81.5v-50h142v-55h-142v-439h-62z" />
    <glyph glyph-name="g" unicode="g" horiz-adv-x="467" 
d="M208 -201q-87 0 -133 34.5t-46 88.5v3q0 61 66 104v1q-42 27 -42 75q0 47 44 99q-60 42 -60 134q0 72 46.5 119.5t123.5 47.5h12q78 0 126 -51q40 40 91 40h14v-49l-7 -7h-2q-2 0 -5 0.5t-6 0.5q-34 0 -60 -21q19 -38 19 -80q0 -83 -47.5 -124t-122.5 -41h-12
q-35 0 -68 11q-29 -39 -29 -65q0 -23 15 -36.5t42 -13.5h109q74 0 113 -35t39 -88v-8q0 -58 -47 -98.5t-144 -40.5h-29zM213 224q114 0 114 110v7q0 50 -29 81.5t-85 31.5q-57 0 -85.5 -31.5t-28.5 -81.5v-7q0 -51 28.5 -80.5t85.5 -29.5zM213 -150h19q135 0 135 86v4
q0 74 -97 74h-105l-19 1q-55 -35 -55 -83q0 -39 31 -60.5t91 -21.5z" />
    <glyph glyph-name="h" unicode="h" horiz-adv-x="488" 
d="M66 0v665h61v-224h2q76 64 161 64q64 0 100.5 -39.5t36.5 -110.5v-355h-62v345q0 105 -92 105q-74 0 -146 -60v-390h-61z" />
    <glyph glyph-name="i" unicode="i" horiz-adv-x="193" 
d="M96 568q-18 0 -30 11t-12 31t12 31t30 11t30 -11t12 -31t-12 -31t-30 -11zM66 0v494h61v-494h-61z" />
    <glyph glyph-name="j" unicode="j" horiz-adv-x="200" 
d="M103 568q-18 0 -30 11t-12 31t12 31t30 11q17 0 29 -11.5t12 -30.5t-12 -30.5t-29 -11.5zM29 -201q-16 0 -32.5 2.5t-25.5 5.5l-9 3l6 43l9 6q24 -5 41 -5q28 0 41 19t13 66v555h62v-559q0 -69 -25 -102.5t-80 -33.5z" />
    <glyph glyph-name="k" unicode="k" horiz-adv-x="425" 
d="M66 0v665h61v-389h37l163 218h72l-180 -239l190 -255h-77l-166 224h-39v-224h-61z" />
    <glyph glyph-name="l" unicode="l" horiz-adv-x="238" 
d="M165 -11q-99 0 -99 122v554h61v-551q0 -40 12.5 -55t40.5 -15l29 3l8 -8v-43q-21 -7 -52 -7z" />
    <glyph glyph-name="m" unicode="m" horiz-adv-x="726" 
d="M66 0v494h38l17 -58q67 69 152 69q84 0 112 -74q72 74 157 74q57 0 89.5 -35t32.5 -100v-370h-62v359q0 91 -78 91q-61 0 -130 -64q1 -15 1 -34v-352h-62v359q0 91 -76 91q-63 0 -130 -62v-388h-61z" />
    <glyph glyph-name="n" unicode="n" horiz-adv-x="488" 
d="M66 0v494h38l18 -59q81 70 168 70q64 0 100.5 -39.5t36.5 -110.5v-355h-62v345q0 105 -92 105q-74 0 -146 -60v-390h-61z" />
    <glyph glyph-name="o" unicode="o" horiz-adv-x="467" 
d="M230 -11q-89 0 -137.5 62.5t-48.5 175.5v40q0 113 48.5 175.5t137.5 62.5h8q88 0 137 -62.5t49 -175.5v-40q0 -113 -49 -175.5t-137 -62.5h-8zM234 44q128 0 128 171v63q0 80 -31.5 126t-96.5 46q-66 0 -97.5 -46t-31.5 -126v-63q0 -171 129 -171z" />
    <glyph glyph-name="p" unicode="p" horiz-adv-x="480" 
d="M66 -190v684h38l15 -48q75 59 151 59q166 0 166 -238v-44q0 -119 -46 -176.5t-120 -57.5q-77 0 -141 56h-2v-235h-61zM253 44q121 0 121 182v33q0 106 -29.5 148.5t-88.5 42.5q-60 0 -129 -46v-303q7 -7 19 -17t44.5 -25t62.5 -15z" />
    <glyph glyph-name="q" unicode="q" horiz-adv-x="480" 
d="M352 -190v261h-2q-60 -82 -147 -82q-69 0 -114 55t-45 179v39q0 124 51 183.5t133 59.5q76 0 135 -56q5 15 13 45h38v-684h-62zM213 44q71 0 139 96v264q-5 5 -17 13.5t-41.5 20.5t-58.5 12q-130 0 -130 -195v-28q0 -183 108 -183z" />
    <glyph glyph-name="r" unicode="r" horiz-adv-x="289" 
d="M66 0v494h38l17 -59h1q41 70 123 70l28 -2l-6 -53l-9 -6q-11 2 -23 2q-76 0 -108 -71v-375h-61z" />
    <glyph glyph-name="s" unicode="s" horiz-adv-x="405" 
d="M182 -11q-32 0 -63 3t-45 6l-15 3l-5 48l10 7q54 -12 116 -12q126 0 126 94q0 33 -21 53t-72 32l-55 13q-62 14 -91.5 41.5t-29.5 85.5q0 62 43.5 102t138.5 40q22 0 48.5 -3t42.5 -6l16 -3q-1 -7 -2 -19.5t-2 -20t-1 -8.5l-9 -5q-54 10 -93 10q-120 0 -120 -87
q0 -58 80 -75l56 -12q133 -29 133 -138q0 -149 -186 -149z" />
    <glyph glyph-name="t" unicode="t" horiz-adv-x="302" 
d="M216 -11q-64 0 -94.5 33t-30.5 104v313h-71v55h71l14 114h48v-114h126v-55h-126v-311q0 -47 18 -65.5t51 -18.5l49 5l8 -4v-47q-28 -9 -63 -9z" />
    <glyph glyph-name="u" unicode="u" horiz-adv-x="513" 
d="M211 -11q-64 0 -104.5 42t-40.5 119v344h61v-342q0 -55 25 -81.5t68 -26.5q81 0 145 96v354h62v-380q0 -37 11.5 -52t35.5 -20l15 -3l4 -7l-9 -37q-13 -6 -30 -6q-37 0 -59.5 23t-26.5 67h-3q-56 -90 -154 -90z" />
    <glyph glyph-name="v" unicode="v" horiz-adv-x="416" 
d="M167 0l-151 494h63l98 -322l28 -110h6l28 110l98 322h63l-151 -494h-82z" />
    <glyph glyph-name="w" unicode="w" horiz-adv-x="640" 
d="M134 0l-118 494h63l83 -342l15 -85h7q11 61 17 85l90 342h59l89 -342l17 -85h8q9 61 15 85l82 342h63l-118 -494h-84l-89 337l-9 53h-8q-4 -35 -9 -53l-88 -337h-85z" />
    <glyph glyph-name="x" unicode="x" horiz-adv-x="403" 
d="M18 0l140 250l-135 244h68l93 -169l16 -42h3l16 42l93 169h68l-135 -244l140 -250h-69l-96 172l-17 42h-3l-18 -42l-96 -172h-68z" />
    <glyph glyph-name="y" unicode="y" horiz-adv-x="429" 
d="M111 -201q-14 0 -27 2.5t-18 4.5l-6 2l7 42l8 7q13 -3 29 -3q24 0 38 17t32 69l20 60l-178 494h63l117 -323l23 -87h7q12 57 21 87l104 323h62l-180 -565q-23 -71 -51 -100.5t-71 -29.5z" />
    <glyph glyph-name="z" unicode="z" horiz-adv-x="394" 
d="M29 0v37l235 372l21 28l-2 4l-31 -2h-208v55h321v-31l-240 -381l-20 -26l1 -4l36 3h223v-55h-336z" />
    <glyph glyph-name="braceleft" unicode="{" horiz-adv-x="277" 
d="M202 -114q-62 0 -92.5 32t-30.5 89q0 41 21 104t21 84q0 29 -15.5 46t-42.5 17h-23v43h23q27 0 42.5 18t15.5 47q0 20 -21 83t-21 104q0 122 123 122l52 -5v-42q-23 4 -46 4q-73 0 -73 -76q0 -26 20.5 -90t20.5 -94q0 -71 -67 -91v-3q67 -18 67 -91q0 -29 -20.5 -93
t-20.5 -90q0 -75 73 -75l46 4v-42q-28 -5 -52 -5z" />
    <glyph glyph-name="bar" unicode="|" horiz-adv-x="225" 
d="M87 -95v798h51v-798h-51z" />
    <glyph glyph-name="braceright" unicode="}" horiz-adv-x="277" 
d="M75 -114l-51 5v42q23 -4 45 -4q74 0 74 75q0 26 -20.5 90t-20.5 93q0 73 66 91v3q-66 20 -66 91q0 30 20.5 94t20.5 90q0 76 -74 76l-45 -4v42q27 5 51 5q124 0 124 -122q0 -41 -21 -104t-21 -83q0 -29 15.5 -47t42.5 -18h23v-43h-23q-27 0 -42.5 -17t-15.5 -46
q0 -21 21 -84t21 -104q0 -121 -124 -121z" />
    <glyph glyph-name="asciitilde" unicode="~" horiz-adv-x="594" 
d="M417 176q-29 0 -56.5 14.5t-49 35t-42 40.5t-43.5 34.5t-45 14.5q-89 0 -89 -130h-47q0 85 36.5 133t99.5 48q36 0 70.5 -22t57.5 -48.5t52.5 -48.5t55.5 -22q34 0 59 29.5t25 101.5h47q0 -87 -33.5 -133.5t-97.5 -46.5z" />
    <glyph glyph-name="exclamdown" unicode="&#xa1;" horiz-adv-x="222" 
d="M111 384q-19 0 -31 12t-12 33t12 33.5t31 12.5t31 -12.5t12 -33.5t-12 -33t-31 -12zM106 -192q-29 0 -29 28v105l17 333h34l17 -333v-105q0 -28 -29 -28h-10z" />
    <glyph glyph-name="guillemotleft" unicode="&#xab;" horiz-adv-x="323" 
d="M108 -1l-78 207l81 203h41l-55 -202l54 -208h-43zM249 -1l-78 207l81 203h41l-55 -202l54 -208h-43z" />
    <glyph glyph-name="periodcentered" unicode="&#xb7;" horiz-adv-x="259" 
d="M104 263l-79 71l79 72l80 -72z" />
    <glyph glyph-name="guillemotright" unicode="&#xbb;" horiz-adv-x="323" 
d="M31 0l54 208l-55 202h41l81 -203l-78 -207h-43zM172 0l54 208l-55 202h41l81 -203l-78 -207h-43z" />
    <glyph glyph-name="questiondown" unicode="&#xbf;" horiz-adv-x="391" 
d="M238 384q-18 0 -30.5 12t-12.5 33t12 33.5t31 12.5q18 0 30 -12.5t12 -33.5t-12 -33t-30 -12zM219 -173q-87 0 -133 41.5t-46 108.5v6q0 47 22.5 81.5t75.5 74.5q48 36 61 53t13 50v52h52v-52q0 -50 -13 -73.5t-70 -65.5q-47 -35 -63 -59.5t-16 -60.5v-5
q0 -43 31.5 -69.5t90.5 -26.5q27 0 52 4t37 8l12 4l9 -4q4 -24 6 -46q0 -1 -15 -6t-45 -10t-61 -5z" />
    <glyph glyph-name="multiply" unicode="&#xd7;" horiz-adv-x="475" 
d="M107 120l-35 35l130 130l-130 130l35 35l131 -130l130 130l35 -35l-130 -130l130 -130l-35 -35l-130 130z" />
    <glyph glyph-name="divide" unicode="&#xf7;" horiz-adv-x="475" 
d="M238 410q-17 0 -27.5 11t-10.5 30t10.5 30t27.5 11q16 0 27 -11t11 -30q0 -18 -11 -29.5t-27 -11.5zM48 258v51h380v-51h-380zM238 78q-17 0 -27.5 11t-10.5 30t10.5 30t27.5 11q16 0 27 -11.5t11 -29.5q0 -19 -11 -30t-27 -11z" />
    <glyph glyph-name="uni060C" unicode="&#x60c;" horiz-adv-x="218" 
d="M131 -12l-44 34q-29 25 -40.5 47.5t-2 61t48.5 89.5q2 3 22.5 29.5t36.5 46.5l16 -12q-54 -81 -62 -110q-4 -15 -2 -26q1 -11 8.5 -22t13 -16t23.5 -22l29 -23z" />
    <glyph glyph-name="uni061B" unicode="&#x61b;" horiz-adv-x="228" 
d="M125 279l-43 34q-29 23 -40.5 46t-2 61.5t48.5 90.5q37 49 59 76l15 -12q-23 -35 -33 -51t-21 -42.5t-9 -42.5q1 -11 8.5 -22t13 -16t23.5 -22l29 -23zM122 0l-71 64l71 64l71 -64z" />
    <glyph glyph-name="uni061F" unicode="&#x61f;" horiz-adv-x="465" 
d="M217 211v57q0 39 -14.5 59.5t-65.5 55.5q-54 37 -78 75t-24 88v9q0 79 51 122t145 43q70 0 122 -19v-65q-62 20 -106 20q-60 0 -95.5 -28.5t-35.5 -75.5v-6q0 -38 18.5 -63.5t71.5 -62.5q58 -41 74.5 -67t16.5 -80v-62h-80zM264 3l-69 61l69 63l69 -63z" />
    <glyph glyph-name="uni0621" unicode="&#x621;" horiz-adv-x="391" 
d="M52 0v63h80q-33 30 -33 79q0 54 36 86t99 32h85v-63h-68q-48 0 -66 -20.5t-18 -46.5q0 -9 2.5 -18t10 -21t26 -20t45.5 -8h68v-63h-267z" />
    <glyph glyph-name="uni0622" unicode="&#x622;" horiz-adv-x="220" 
d="M-8 726v52q25 23 55 24t68 -8.5t59 -8.5q36 2 67 24v-52q-30 -20 -64 -22q-22 -1 -60.5 8.5t-69 8t-55.5 -25.5zM78 -3v621l65 24v-621z" />
    <glyph glyph-name="uni0623" unicode="&#x623;" horiz-adv-x="220" 
d="M19 671v44h56q-23 20 -23 54q0 37 24.5 59t67.5 22h59v-44h-47q-58 0 -58 -45q0 -9 2.5 -17.5t17 -18.5t38.5 -10h47v-44h-184zM78 -3v572l65 22v-572z" />
    <glyph glyph-name="uni0624" unicode="&#x624;" horiz-adv-x="456" 
d="M203 556v44h55q-23 20 -23 54q0 37 24.5 59t68.5 22h58v-44h-47q-57 0 -57 -45q0 -9 2.5 -17.5t16.5 -18.5t38 -10h47v-44h-183zM247 -226l-54 31q116 77 135 178l4 17h-92q-107 0 -158 57.5t-51 137.5q0 85 55.5 145t145.5 76q61 11 166 2v-318q0 -96 -21.5 -162
t-50.5 -97.5t-79 -66.5zM242 63h93v293q-30 2 -55 1q-81 -3 -132 -47.5t-51 -114.5q0 -22 5.5 -42t19 -42t44.5 -35t76 -13z" />
    <glyph glyph-name="uni0625" unicode="&#x625;" horiz-adv-x="220" 
d="M78 -3v621l65 24v-621zM17 -283v43h55q-23 20 -23 54q0 37 24.5 59t68.5 22h58v-43h-47q-57 0 -57 -46q0 -9 2.5 -17.5t16.5 -18.5t38 -10h47v-43h-183z" />
    <glyph glyph-name="uni0626" unicode="&#x626;" horiz-adv-x="764" 
d="M50 351v43h56q-23 20 -23 54q0 37 24.5 59t67.5 22h59v-43h-47q-58 0 -58 -46q0 -9 2.5 -17.5t17 -18.5t38.5 -10h47v-43h-184zM405 -162q-200 0 -288 96q-54 58 -45 165q4 55 21 87l74 30q-33 -62 -33 -135q0 -37 10.5 -66t38 -56t83.5 -41.5t139 -14.5q185 0 215 71
q9 21 9 55q0 20 -2 31t-8.5 23t-21.5 17t-40 5h-179v126q0 23 4.5 45.5t16.5 49.5t32.5 46t53.5 35.5t79 18.5t108 -5v-61q-23 4 -49 4q-55 0 -93 -13t-55 -35t-23.5 -42t-6.5 -43v-62h134q96 0 111 -70q16 -69 -1 -131q-35 -130 -284 -130z" />
    <glyph glyph-name="uni0627" unicode="&#x627;" horiz-adv-x="220" 
d="M78 -3v621l65 24v-621z" />
    <glyph glyph-name="uni0628" unicode="&#x628;" horiz-adv-x="776" 
d="M246 0q-79 0 -127 44.5t-47 119.5l1 108l63 23v-131q0 -49 28.5 -75t81.5 -26h300q37 0 63.5 26.5t26.5 63.5v262h64v-281q0 -56 -39 -95t-95 -39h-320zM418 -231l-51 46l51 46l51 -46z" />
    <glyph glyph-name="uni0629" unicode="&#x629;" horiz-adv-x="523" 
d="M200 538l-50 45l50 46l51 -46zM332 538l-51 45l51 46l51 -46zM253 -11q-89 0 -138 51.5t-49 145.5q0 88 52 157q55 72 138 72q84 0 139 -72q52 -68 52 -157q0 -94 -49 -145.5t-138 -51.5h-7zM255 46h3q50 0 87 36.5t37 111.5q0 58 -34.5 110t-91.5 52q-56 0 -90.5 -52
t-34.5 -110q0 -75 37 -111.5t87 -36.5z" />
    <glyph glyph-name="uni062A" unicode="&#x62a;" horiz-adv-x="776" 
d="M336 490l-51 45l51 46l51 -46zM468 490l-51 45l51 46l50 -46zM246 0q-79 0 -127 44.5t-47 119.5l1 108l63 23v-131q0 -49 28.5 -75t81.5 -26h300q37 0 63.5 26.5t26.5 63.5v262h64v-281q0 -56 -39 -95t-95 -39h-320z" />
    <glyph glyph-name="uni062B" unicode="&#x62b;" horiz-adv-x="776" 
d="M397 599l-46 41l46 42l45 -42zM336 490l-51 45l51 46l51 -46zM468 490l-51 45l51 46l50 -46zM246 0q-79 0 -127 44.5t-47 119.5l1 108l63 23v-131q0 -49 28.5 -75t81.5 -26h300q37 0 63.5 26.5t26.5 63.5v262h64v-281q0 -56 -39 -95t-95 -39h-320z" />
    <glyph glyph-name="uni062C" unicode="&#x62c;" horiz-adv-x="674" 
d="M292 -338q-111 0 -178.5 57.5t-67.5 148.5q0 86 60 140.5t155 54.5h232q-23 32 -43 94q-8 26 -12 38.5t-13.5 36t-17 36t-21 31t-27.5 27t-34 18.5t-43 12t-53 -0.5t-64 -10.5l27 68q44 7 78.5 8.5t63.5 -8.5t50.5 -22.5t39.5 -33.5t30 -40.5t22.5 -44t17.5 -45t14 -42.5
q1 -5 2 -7q20 -66 41 -90.5t62 -24.5h19l-25 -63h-342q-67 0 -109 -37t-42 -96q0 -64 52 -103t137 -39q39 0 70 9l-21 -67q-32 -5 -60 -5zM496 -205l-51 45l51 46l50 -46z" />
    <glyph glyph-name="uni062D" unicode="&#x62d;" horiz-adv-x="674" 
d="M292 -338q-111 0 -178.5 57.5t-67.5 148.5q0 86 60 140.5t155 54.5h232q-23 32 -43 94q-8 26 -12 38.5t-13.5 36t-17 36t-21 31t-27.5 27t-34 18.5t-43 12t-53 -0.5t-64 -10.5l27 68q44 7 78.5 8.5t63.5 -8.5t50.5 -22.5t39.5 -33.5t30 -40.5t22.5 -44t17.5 -45t14 -42.5
q1 -5 2 -7q20 -66 41 -90.5t62 -24.5h19l-25 -63h-342q-67 0 -109 -37t-42 -96q0 -64 52 -103t137 -39q39 0 70 9l-21 -67q-32 -5 -60 -5z" />
    <glyph glyph-name="uni062E" unicode="&#x62e;" horiz-adv-x="674" 
d="M332 567l-51 46l51 46l51 -46zM292 -338q-111 0 -178.5 57.5t-67.5 148.5q0 86 60 140.5t155 54.5h232q-23 32 -43 94q-8 26 -12 38.5t-13.5 36t-17 36t-21 31t-27.5 27t-34 18.5t-43 12t-53 -0.5t-64 -10.5l27 68q44 7 78.5 8.5t63.5 -8.5t50.5 -22.5t39.5 -33.5
t30 -40.5t22.5 -44t17.5 -45t14 -42.5q1 -5 2 -7q20 -66 41 -90.5t62 -24.5h19l-25 -63h-342q-67 0 -109 -37t-42 -96q0 -64 52 -103t137 -39q39 0 70 9l-21 -67q-32 -5 -60 -5z" />
    <glyph glyph-name="uni062F" unicode="&#x62f;" horiz-adv-x="486" 
d="M47 0v63h307v142q0 87 -34 121.5t-119 34.5q-37 0 -72 -8v55q62 16 109 16q96 0 144 -62q36 -48 36 -160v-202h-371z" />
    <glyph glyph-name="uni0630" unicode="&#x630;" horiz-adv-x="486" 
d="M245 563l-51 45l51 46l51 -46zM47 0v63h307v142q0 87 -34 121.5t-119 34.5q-37 0 -72 -8v55q62 16 109 16q96 0 144 -62q36 -48 36 -160v-202h-371z" />
    <glyph glyph-name="uni0631" unicode="&#x631;" horiz-adv-x="269" 
d="M48 -240l-48 36q34 23 56.5 50.5t34 50.5t17 60.5t6.5 61.5t1 72v278l63 23v-276q0 -169 -23 -233.5t-107 -122.5z" />
    <glyph glyph-name="uni0632" unicode="&#x632;" horiz-adv-x="269" 
d="M150 529l-51 45l51 47l50 -47zM48 -240l-48 36q34 23 56.5 50.5t34 50.5t17 60.5t6.5 61.5t1 72v278l63 23v-276q0 -169 -23 -233.5t-107 -122.5z" />
    <glyph glyph-name="uni0633" unicode="&#x633;" horiz-adv-x="1100" 
d="M310 -162q-126 0 -186.5 57t-60.5 136v147l63 22v-163q0 -21 7 -40.5t24.5 -41t57 -34t95.5 -12.5t95 12.5t56.5 34t24 40.5t6.5 41v296l64 23v-292l86 -1q40 -1 61.5 19.5t21.5 59.5v191l64 23v-225q0 -27 -6 -50l-4 -17l94 -1q40 -1 61.5 19.5t21.5 59.5v228l64 23
v-262q0 -70 -32.5 -100.5t-105.5 -30.5h-115v43l-7 -8q-29 -35 -109 -35h-94l-13 -34q-50 -128 -234 -128z" />
    <glyph glyph-name="uni0634" unicode="&#x634;" horiz-adv-x="1100" 
d="M779 635l-46 41l46 41l45 -41zM718 525l-51 46l51 46l51 -46zM850 525l-51 46l51 46l50 -46zM310 -162q-126 0 -186.5 57t-60.5 136v147l63 22v-163q0 -21 7 -40.5t24.5 -41t57 -34t95.5 -12.5t95 12.5t56.5 34t24 40.5t6.5 41v296l64 23v-292l86 -1q40 -1 61.5 19.5
t21.5 59.5v191l64 23v-225q0 -27 -6 -50l-4 -17l94 -1q40 -1 61.5 19.5t21.5 59.5v228l64 23v-262q0 -70 -32.5 -100.5t-105.5 -30.5h-115v43l-7 -8q-29 -35 -109 -35h-94l-13 -34q-50 -128 -234 -128z" />
    <glyph glyph-name="uni0635" unicode="&#x635;" horiz-adv-x="1068" 
d="M312 -202q-126 0 -186.5 57t-60.5 136v193l64 24v-211q0 -21 6.5 -40.5t24 -40.5t57 -34t95.5 -13t95 13t56.5 34t24 40.5t6.5 40.5v369l64 23v-82l85 43q59 30 121 48q42 13 79 13q57 0 101.5 -30.5t64.5 -84.5q19 -51 19 -108q0 -96 -51 -142t-119 -46h-296l-7 -43
q-4 -23 -15 -46t-36 -51t-74.5 -45t-117.5 -17zM558 64h298q16 0 31 4t33.5 15.5t30 38.5t11.5 66q0 48 -15 85q-30 75 -106 75q-29 0 -58 -10q-81 -24 -200 -95l-25 -15v-164z" />
    <glyph glyph-name="uni0636" unicode="&#x636;" horiz-adv-x="1068" 
d="M748 543l-51 45l51 46l51 -46zM312 -202q-126 0 -186.5 57t-60.5 136v193l64 24v-211q0 -21 6.5 -40.5t24 -40.5t57 -34t95.5 -13t95 13t56.5 34t24 40.5t6.5 40.5v369l64 23v-82l85 43q59 30 121 48q42 13 79 13q57 0 101.5 -30.5t64.5 -84.5q19 -51 19 -108
q0 -96 -51 -142t-119 -46h-296l-7 -43q-4 -23 -15 -46t-36 -51t-74.5 -45t-117.5 -17zM558 64h298q16 0 31 4t33.5 15.5t30 38.5t11.5 66q0 48 -15 85q-30 75 -106 75q-29 0 -58 -10q-81 -24 -200 -95l-25 -15v-164z" />
    <glyph glyph-name="uni0637" unicode="&#x637;" horiz-adv-x="777" 
d="M73 0l-35 63h166v556l64 23v-335l85 43q66 33 120 48q42 13 80 13q56 0 100 -30.5t65 -84.5q19 -47 19 -108q0 -96 -50.5 -142t-118.5 -46h-495zM268 63h298q15 0 30.5 4t34 16t30 39t11.5 66q0 48 -15 85q-29 75 -106 75q-26 0 -59 -10q-85 -25 -199 -95l-25 -16v-164z
" />
    <glyph glyph-name="uni0638" unicode="&#x638;" horiz-adv-x="777" 
d="M492 564l-51 46l51 46l51 -46zM73 0l-35 63h166v556l64 23v-335l85 43q66 33 120 48q42 13 80 13q56 0 100 -30.5t65 -84.5q19 -47 19 -108q0 -96 -50.5 -142t-118.5 -46h-495zM268 63h298q15 0 30.5 4t34 16t30 39t11.5 66q0 48 -15 85q-29 75 -106 75q-26 0 -59 -10
q-85 -25 -199 -95l-25 -16v-164z" />
    <glyph glyph-name="uni0639" unicode="&#x639;" horiz-adv-x="491" 
d="M326 -337q-131 0 -204.5 55t-73.5 152q0 66 38.5 114.5t108.5 71.5l9 3q-2 3 -9.5 9.5t-9.5 8.5q-37 41 -46.5 100t8.5 112.5t75 90t141 33.5q35 -1 83 -13v-64q-43 13 -81 13q-111 0 -145 -76q-16 -38 -10.5 -81t30.5 -72q48 -57 157 -57h65v-63h-198
q-78 0 -119.5 -45.5t-30 -104.5t72.5 -93q63 -36 169 -36q17 0 55 2l-18 -56q-31 -4 -67 -4z" />
    <glyph glyph-name="uni063A" unicode="&#x63a;" horiz-adv-x="494" 
d="M342 552l-50 46l50 46l51 -46zM326 -337q-131 0 -204.5 55t-73.5 152q0 66 38.5 114.5t108.5 71.5l9 3q-2 3 -9.5 9.5t-9.5 8.5q-37 41 -46.5 100t8.5 112.5t75 90t141 33.5q35 -1 83 -13v-64q-43 13 -81 13q-111 0 -145 -76q-16 -38 -10.5 -81t30.5 -72q48 -57 157 -57
h65v-63h-198q-78 0 -119.5 -45.5t-30 -104.5t72.5 -93q63 -36 169 -36q17 0 55 2l-18 -56q-31 -4 -67 -4z" />
    <glyph glyph-name="uni0640" unicode="&#x640;" horiz-adv-x="140" 
d="M-10 0v63h166v-63h-166z" />
    <glyph glyph-name="uni0641" unicode="&#x641;" horiz-adv-x="867" 
d="M690 571l-51 46l51 46l51 -46zM241 0q-80 0 -127 44.5t-47 119.5v108l64 23v-131q0 -49 28.5 -75t81.5 -26l262 1q-51 48 -51 131q0 84 55.5 145t145.5 76q61 11 166 2v-418h-578zM663 63h93v293q-30 2 -55 1q-81 -3 -132.5 -48t-51.5 -114q0 -22 5.5 -42t19.5 -42
t45 -35t76 -13z" />
    <glyph glyph-name="uni0642" unicode="&#x642;" horiz-adv-x="776" 
d="M527 571l-51 46l51 46l50 -46zM658 571l-50 46l50 46l51 -46zM394 -272q-190 0 -269 94q-78 91 -52 282l65 24q-27 -182 36 -259q59 -71 220 -71q229 0 264 202h-89q-107 0 -158 57.5t-51 137.5q0 84 56 144.5t145 76.5q61 11 167 2l-1 -348q-1 -161 -89 -251.5
t-244 -90.5zM571 63h93v293q-30 2 -55 1q-81 -3 -132 -48t-51 -114q0 -22 5.5 -42t19.5 -42t45 -35t75 -13z" />
    <glyph glyph-name="uni0643" unicode="&#x643;" horiz-adv-x="823" 
d="M339 0q-153 0 -223 99q-68 94 -33 244l68 26q-12 -35 -16.5 -73.5t2.5 -81t27.5 -75.5t65.5 -54.5t109 -21.5h255q47 0 65.5 18t18.5 63v475l63 23v-498q0 -76 -32.5 -110t-111.5 -34h-258zM317 325v43h56q-23 20 -23 54q0 37 24.5 59t67.5 22h59v-43h-47q-58 0 -58 -46
q0 -9 3 -17.5t17 -18.5t38 -10h47v-43h-184z" />
    <glyph glyph-name="uni0644" unicode="&#x644;" horiz-adv-x="631" 
d="M321 -159q-137 0 -202 82q-79 99 -43 298l64 23q-34 -204 29 -278q51 -61 152 -61q27 0 51 4t49 16t42.5 31.5t28.5 51.5t11 74v537l63 23v-560q0 -114 -65.5 -177.5t-179.5 -63.5z" />
    <glyph glyph-name="uni0645" unicode="&#x645;" horiz-adv-x="685" 
d="M40 -308v235q0 67 33 102t88 35h126q-51 50 -51 131q0 84 55.5 145t145.5 76q61 11 166 2v-418h-425q-27 0 -43 -6.5t-22.5 -22.5t-7.5 -27.5t-1 -36.5v-192zM447 63h93v293q-30 2 -55 1q-81 -3 -132 -48t-51 -114q0 -22 5.5 -42t19.5 -42t45 -35t75 -13z" />
    <glyph glyph-name="uni0646" unicode="&#x646;" horiz-adv-x="641" 
d="M313 433l-51 45l51 46l51 -46zM314 -159q-137 0 -202 82q-79 99 -43 298l64 23q-34 -204 29 -278q51 -61 152 -61q27 0 51 4t49 16t42.5 31.5t28.5 51.5t11 74v288l63 23v-311q0 -114 -65.5 -177.5t-179.5 -63.5z" />
    <glyph glyph-name="uni0647" unicode="&#x647;" horiz-adv-x="523" 
d="M253 -11q-89 0 -138 51.5t-49 145.5q0 88 52 157q55 72 138 72q84 0 139 -72q52 -68 52 -157q0 -94 -49 -145.5t-138 -51.5h-7zM255 46h3q50 0 87 36.5t37 111.5q0 58 -34.5 110t-91.5 52q-56 0 -90.5 -52t-34.5 -110q0 -75 37 -111.5t87 -36.5z" />
    <glyph glyph-name="uni0648" unicode="&#x648;" horiz-adv-x="456" 
d="M247 -226l-54 31q116 77 135 178l4 17h-92q-107 0 -158 57.5t-51 137.5q0 85 55.5 145t145.5 76q61 11 166 2v-318q0 -96 -21.5 -162t-50.5 -97.5t-79 -66.5zM242 63h93v293q-30 2 -55 1q-81 -3 -132 -47.5t-51 -114.5q0 -22 5.5 -42t19 -42t44.5 -35t76 -13z" />
    <glyph glyph-name="uni0649" unicode="&#x649;" horiz-adv-x="764" 
d="M405 -162q-200 0 -288 96q-54 58 -45 165q4 55 21 87l74 30q-33 -62 -33 -135q0 -37 10.5 -66t38 -56t83.5 -41.5t139 -14.5q185 0 215 71q9 21 9 55q0 20 -2 31t-8.5 23t-21.5 17t-40 5h-179v126q0 23 4.5 45.5t16.5 49.5t32.5 46t53.5 35.5t79 18.5t108 -5v-61
q-23 4 -49 4q-55 0 -93 -13t-55 -35t-23.5 -42t-6.5 -43v-62h134q96 0 111 -70q16 -69 -1 -131q-35 -130 -284 -130z" />
    <glyph glyph-name="uni064A" unicode="&#x64a;" horiz-adv-x="764" 
d="M405 -162q-200 0 -288 96q-54 58 -45 165q4 55 21 87l74 30q-33 -62 -33 -135q0 -37 10.5 -66t38 -56t83.5 -41.5t139 -14.5q185 0 215 71q9 21 9 55q0 20 -2 31t-8.5 23t-21.5 17t-40 5h-179v126q0 23 4.5 45.5t16.5 49.5t32.5 46t53.5 35.5t79 18.5t108 -5v-61
q-23 4 -49 4q-55 0 -93 -13t-55 -35t-23.5 -42t-6.5 -43v-62h134q96 0 111 -70q16 -69 -1 -131q-35 -130 -284 -130zM331 -386l-51 46l51 46l51 -46zM463 -386l-51 46l51 46l50 -46z" />
    <glyph glyph-name="uni064B" unicode="&#x64b;" 
d="M0 655v39l239 58v-38zM0 548v39l239 58v-38z" />
    <glyph glyph-name="uni064C" unicode="&#x64c;" 
d="M27 537l-27 21l51 69q45 -36 93 -36t64 13l-21 7q-25 11 -40 33.5t-15 49.5q0 38 27 64.5t64 26.5t63.5 -26.5t26.5 -64.5q0 -23 -11 -45q-26 -45 -71.5 -68.5t-91 -22t-79.5 23.5l-9 -13q-2 -3 -7 -9.5t-7 -9.5q-1 -1 -10 -13zM223 636q24 0 41 17t17 41t-17 41t-41 17
t-41 -17t-17 -41t17 -41t41 -17z" />
    <glyph glyph-name="uni064D" unicode="&#x64d;" 
d="M0 -176v39l239 58v-38zM0 -282v39l239 58v-38z" />
    <glyph glyph-name="uni064E" unicode="&#x64e;" 
d="M0 556v39l239 58v-38z" />
    <glyph glyph-name="uni064F" unicode="&#x64f;" 
d="M51 554q-10 0 -32 2q-3 0 -9.5 0.5t-9.5 0.5l7 33q3 -1 9.5 -1.5t9.5 -0.5h5q18 -2 35 -2q47 0 81 14q-40 6 -60 32t-20 57q0 37 26.5 64t64.5 27t64.5 -27t26.5 -64q0 -24 -12 -45q-18 -35 -62 -62.5t-124 -27.5zM158 631q24 0 41 17t17 41t-17 41t-41 17t-41 -17
t-17 -41t17 -41t41 -17z" />
    <glyph glyph-name="uni0650" unicode="&#x650;" 
d="M0 -168v39l239 58v-38z" />
    <glyph glyph-name="uni0651" unicode="&#x651;" 
d="M70 548q-70 0 -70 65v77h35v-73q0 -37 34 -37q16 0 25.5 10t9.5 27v73h35v-73q0 -37 34 -37q35 0 35 37v73h35v-77q0 -65 -69 -65q-26 0 -45 11l-7 5l-8 -5q-19 -11 -44 -11z" />
    <glyph glyph-name="uni0652" unicode="&#x652;" 
d="M91 549q-37 0 -64 26.5t-27 63.5t27 64t64 27t63.5 -26.5t26.5 -64.5q0 -37 -26.5 -63.5t-63.5 -26.5zM91 582q24 0 41 17t17 40q0 24 -17 41t-41 17t-41 -17t-17 -41q0 -23 17 -40t41 -17z" />
    <glyph glyph-name="uni0653" unicode="&#x653;" 
d="M-8 641v52q25 23 55 24t68 -8.5t59 -8.5q36 2 67 24v-52q-30 -20 -64 -22q-22 -1 -60.5 8.5t-69 8t-55.5 -25.5z" />
    <glyph glyph-name="uni0654" unicode="&#x654;" 
d="M0 671v44h56q-23 20 -23 54q0 37 24.5 59t67.5 22h59v-44h-47q-58 0 -58 -45q0 -9 2.5 -17.5t17 -18.5t38.5 -10h47v-44h-184z" />
    <glyph glyph-name="uni0655" unicode="&#x655;" 
d="M0 -283v43h55q-23 20 -23 54q0 37 24.5 59t68.5 22h58v-43h-47q-57 0 -57 -46q0 -9 2.5 -17.5t16.5 -18.5t38 -10h47v-43h-183z" />
    <glyph glyph-name="uni0660" unicode="&#x660;" horiz-adv-x="513" 
d="M255 -11q-93 0 -148 73t-55 213v77q0 139 55 212.5t148 73.5h3q93 0 148 -73t55 -213v-77q0 -140 -54.5 -213t-148.5 -73h-3zM257 44q67 0 104.5 55t37.5 169v90q0 114 -37.5 169.5t-104.5 55.5q-143 0 -143 -225v-90q0 -224 143 -224z" />
    <glyph glyph-name="uni0661" unicode="&#x661;" horiz-adv-x="277" 
d="M133 0v546l-2 1l-79 -53h-33v36l138 97h38v-627h-62z" />
    <glyph glyph-name="uni0662" unicode="&#x662;" horiz-adv-x="454" 
d="M41 0v67q0 51 23.5 91t78.5 76l95 61q60 40 86 73.5t26 83.5v4q0 56 -34.5 91.5t-108.5 35.5q-29 0 -64 -8.5t-56 -16.5l-21 -9l-9 3q-3 18 -6 46q73 40 166 40q95 0 144.5 -49.5t49.5 -130.5v-6q0 -40 -10 -71.5t-33.5 -57t-44.5 -41.5t-59 -40l-85 -55q-44 -28 -60 -54
t-16 -61v-17h299v-55h-361z" />
    <glyph glyph-name="uni0663" unicode="&#x663;" horiz-adv-x="431" 
d="M181 -11q-38 0 -75 6t-55 12t-18 7l4 45l11 5q63 -20 125 -20q76 0 115 38t39 95v4q0 55 -38.5 86.5t-107.5 31.5h-87v51h88q54 0 90 33t36 84v5q0 49 -33 80t-96 31q-26 0 -56 -6.5t-47 -12.5l-17 -7l-11 4l-6 42q60 35 146 35q89 0 135.5 -47t46.5 -113v-6
q0 -48 -25 -84.5t-63 -54.5v-2q44 -15 75.5 -53t31.5 -97v-7q0 -81 -55.5 -133t-152.5 -52z" />
    <glyph glyph-name="uni0664" unicode="&#x664;" horiz-adv-x="458" 
d="M306 0v121h-280v55l196 451h66l-196 -451h214v204h62v-204h80v-55h-80v-121h-62z" />
    <glyph glyph-name="uni0665" unicode="&#x665;" horiz-adv-x="448" 
d="M212 -11q-39 0 -77.5 7.5t-56.5 15.5l-19 8l5 45l10 5q67 -26 128 -26q134 0 134 148v22q0 126 -120 126q-28 0 -55.5 -9.5t-41.5 -18.5l-14 -10l-48 12l18 313h285v-55h-227l-12 -205h3q53 28 109 28q77 0 121 -45.5t44 -132.5v-25q0 -96 -46 -149.5t-140 -53.5z" />
    <glyph glyph-name="uni0666" unicode="&#x666;" horiz-adv-x="494" 
d="M254 -11q-98 0 -150 68t-52 204v62q0 315 235 315q27 0 54 -5t41 -9l13 -5l-5 -47l-8 -5q-45 16 -92 16q-86 0 -131 -56t-45 -182v-2l2 -1q66 55 157 55q83 0 126 -49.5t43 -128.5v-27q0 -91 -48.5 -147t-139.5 -56zM254 44q59 0 92.5 36.5t33.5 105.5v32q0 60 -33 92
t-90 32q-73 0 -143 -58v-36q0 -204 140 -204z" />
    <glyph glyph-name="uni0667" unicode="&#x667;" horiz-adv-x="413" 
d="M62 0l267 566v6h-303v55h370v-55l-266 -572h-68z" />
    <glyph glyph-name="uni0668" unicode="&#x668;" horiz-adv-x="485" 
d="M243 -11q-87 0 -142 42.5t-55 122.5q0 56 30 97t93 75v4q-32 17 -52.5 32t-39 48t-18.5 75q0 70 50.5 111.5t133.5 41.5q84 0 134 -40.5t50 -112.5q0 -54 -27 -91.5t-86 -67.5v-6q61 -31 93.5 -69.5t32.5 -96.5q0 -80 -55 -122.5t-142 -42.5zM257 350q56 31 83.5 60.5
t27.5 74.5t-32.5 71.5t-92.5 26.5t-92.5 -26.5t-32.5 -71.5q0 -38 22.5 -63.5t81.5 -54.5zM243 44q63 0 99 29.5t36 80.5q0 39 -22 66t-90 60l-36 18q-65 -30 -94 -64t-29 -80q0 -50 36.5 -80t99.5 -30z" />
    <glyph glyph-name="uni0669" unicode="&#x669;" horiz-adv-x="494" 
d="M206 -11q-26 0 -52.5 4.5t-40.5 8.5l-14 5l5 48l8 5q48 -16 92 -16q88 0 131.5 55t43.5 184q-71 -53 -155 -53t-128 51t-44 131v22q0 93 52.5 148.5t142.5 55.5q95 0 145 -67.5t50 -198.5v-68q0 -163 -59.5 -239t-176.5 -76zM236 285q81 0 144 49v44q0 205 -133 205
q-58 0 -95.5 -39t-37.5 -107v-24q0 -63 33 -95.5t89 -32.5z" />
    <glyph glyph-name="uni066A" unicode="&#x66a;" horiz-adv-x="675" 
d="M119 -11l385 638h56l-385 -638h-56zM158 293q-48 0 -80.5 35.5t-32.5 106.5v39q0 72 32.5 108t80.5 36h7q48 0 80.5 -36t32.5 -108v-39q0 -71 -32.5 -106.5t-80.5 -35.5h-7zM162 335q66 0 66 93v55q0 39 -15.5 65.5t-50.5 26.5q-67 0 -67 -92v-55q0 -93 67 -93zM509 -11
q-48 0 -80.5 35.5t-32.5 106.5v39q0 72 32.5 108t80.5 36h8q48 0 80.5 -36t32.5 -108v-39q0 -71 -32.5 -106.5t-80.5 -35.5h-8zM513 31q67 0 67 93v55q0 39 -16 65.5t-51 26.5t-50.5 -26.5t-15.5 -65.5v-55q0 -93 66 -93z" />
    <glyph glyph-name="endash" unicode="&#x2013;" horiz-adv-x="475" 
d="M48 258v51h380v-51h-380z" />
    <glyph glyph-name="emdash" unicode="&#x2014;" horiz-adv-x="703" 
d="M43 258v51h617v-51h-617z" />
    <glyph glyph-name="quoteleft" unicode="&#x2018;" horiz-adv-x="171" 
d="M40 421l47 246h44l-12 -246h-79z" />
    <glyph glyph-name="quoteright" unicode="&#x2019;" horiz-adv-x="171" 
d="M40 472l12 246h79l-47 -246h-44z" />
    <glyph glyph-name="quotesinglbase" unicode="&#x201a;" horiz-adv-x="163" 
d="M40 -147l18 267h65l-39 -267h-44z" />
    <glyph glyph-name="quotedblleft" unicode="&#x201c;" horiz-adv-x="382" 
d="M133 490q-39 47 -59 77q-39 51 -49 89.5t2 62t41 46.5l43 34l48 -77l-29 -24q-42 -35 -45 -60q-4 -34 63 -135zM336 490q-40 50 -58 77q-39 51 -48.5 89t1.5 61t40 48l44 34l47 -77l-29 -24q-40 -33 -44 -60q-4 -34 63 -135z" />
    <glyph glyph-name="quotedblright" unicode="&#x201d;" horiz-adv-x="382" 
d="M46 490l-16 13q23 35 33 50.5t21.5 42t9.5 42.5q-5 28 -45 60l-29 24l47 77l44 -34q29 -25 40.5 -48t2 -61.5t-48.5 -88.5q-2 -2 -11.5 -15t-22.5 -30t-25 -32zM249 490l-15 13q67 101 63 135q-4 27 -44 60l-29 24l47 77l44 -34q29 -25 40 -48t1.5 -61t-48.5 -89
q-20 -30 -59 -77z" />
    <glyph glyph-name="quotedblbase" unicode="&#x201e;" horiz-adv-x="344" 
d="M41 -145l20 298h72l-43 -298h-49zM212 -145l20 298h72l-43 -298h-49z" />
    <glyph glyph-name="bullet" unicode="&#x2022;" horiz-adv-x="300" 
d="M150 245q-28 0 -48 20t-20 49q0 28 20 48t48 20q29 0 49 -20t20 -48t-20.5 -48.5t-48.5 -20.5z" />
    <glyph glyph-name="ellipsis" unicode="&#x2026;" horiz-adv-x="753" 
d="M114 1l-79 71l79 72l80 -72zM376 1l-79 71l79 72l80 -72zM638 1l-79 71l79 72l80 -72z" />
    <glyph glyph-name="guilsinglleft" unicode="&#x2039;" horiz-adv-x="182" 
d="M108 0l-78 207l81 203h41l-55 -202l54 -208h-43z" />
    <glyph glyph-name="guilsinglright" unicode="&#x203a;" horiz-adv-x="182" 
d="M31 0l54 208l-55 202h41l81 -203l-78 -207h-43z" />
    <glyph glyph-name="minus" unicode="&#x2212;" horiz-adv-x="475" 
d="M48 258v51h380v-51h-380z" />
    <glyph glyph-name="kerseh.ini" horiz-adv-x="280" 
d="M-10 0v63h70q82 0 82 79v228l64 23v-262q0 -70 -32.5 -100.5t-105.5 -30.5h-78z" />
    <glyph glyph-name="kerseh.med" horiz-adv-x="330" 
d="M-10 0v63h66q40 0 61.5 20.5t21.5 58.5v228l63 23v-262q0 -31 -5 -50l-4 -17h152v-64h-163v44l-9 -9q-31 -35 -109 -35h-74z" />
    </font>
</defs>
</svg>
